<svg width="24" height="24" viewBox="0 0 24 24" fill="none" xmlns="http://www.w3.org/2000/svg">
<g clip-path="url(#clip0_394_1362)">
<path d="M20.25 22.5C20.4489 22.5 20.6397 22.421 20.7803 22.2803C20.921 22.1397 21 21.9489 21 21.75V12.1875C21 11.8674 20.937 11.5504 20.8145 11.2547C20.692 10.959 20.5124 10.6903 20.2861 10.4639C20.0597 10.2376 19.791 10.058 19.4953 9.93554C19.1996 9.81305 18.8826 9.75 18.5625 9.75H16.5V3.9375C16.5 3.6174 16.437 3.30044 16.3145 3.00471C16.192 2.70898 16.0124 2.44027 15.7861 2.21393C15.5597 1.98758 15.291 1.80804 14.9953 1.68554C14.6996 1.56305 14.3826 1.5 14.0625 1.5H5.25C4.65326 1.5 4.08097 1.73705 3.65901 2.15901C3.23705 2.58097 3 3.15326 3 3.75V21.75C3 21.9489 3.07902 22.1397 3.21967 22.2803C3.36032 22.421 3.55109 22.5 3.75 22.5H20.25Z" fill="url(#paint0_linear_394_1362)"/>
<path d="M20.25 22.5C20.4489 22.5 20.6397 22.421 20.7803 22.2803C20.921 22.1397 21 21.9489 21 21.75V12.1875C21 11.8674 20.937 11.5504 20.8145 11.2547C20.692 10.959 20.5124 10.6903 20.2861 10.4639C20.0597 10.2376 19.791 10.058 19.4953 9.93554C19.1996 9.81305 18.8826 9.75 18.5625 9.75H16.5V3.9375C16.5 3.6174 16.437 3.30044 16.3145 3.00471C16.192 2.70898 16.0124 2.44027 15.7861 2.21393C15.5597 1.98758 15.291 1.80804 14.9953 1.68554C14.6996 1.56305 14.3826 1.5 14.0625 1.5H5.25C4.65326 1.5 4.08097 1.73705 3.65901 2.15901C3.23705 2.58097 3 3.15326 3 3.75V21.75C3 21.9489 3.07902 22.1397 3.21967 22.2803C3.36032 22.421 3.55109 22.5 3.75 22.5H20.25Z" fill="url(#paint1_radial_394_1362)"/>
<path d="M20.25 22.5C20.4489 22.5 20.6397 22.421 20.7803 22.2803C20.921 22.1397 21 21.9489 21 21.75V12.1875C21 11.8674 20.937 11.5504 20.8145 11.2547C20.692 10.959 20.5124 10.6903 20.2861 10.4639C20.0597 10.2376 19.791 10.058 19.4953 9.93554C19.1996 9.81305 18.8826 9.75 18.5625 9.75H16.5V3.9375C16.5 3.6174 16.437 3.30044 16.3145 3.00471C16.192 2.70898 16.0124 2.44027 15.7861 2.21393C15.5597 1.98758 15.291 1.80804 14.9953 1.68554C14.6996 1.56305 14.3826 1.5 14.0625 1.5H5.25C4.65326 1.5 4.08097 1.73705 3.65901 2.15901C3.23705 2.58097 3 3.15326 3 3.75V21.75C3 21.9489 3.07902 22.1397 3.21967 22.2803C3.36032 22.421 3.55109 22.5 3.75 22.5H20.25Z" fill="url(#paint2_radial_394_1362)"/>
<path d="M7.875 7.5C8.17337 7.5 8.45952 7.38147 8.6705 7.1705C8.88147 6.95952 9 6.67337 9 6.375C9 6.07663 8.88147 5.79048 8.6705 5.5795C8.45952 5.36853 8.17337 5.25 7.875 5.25C7.57663 5.25 7.29048 5.36853 7.0795 5.5795C6.86853 5.79048 6.75 6.07663 6.75 6.375C6.75 6.67337 6.86853 6.95952 7.0795 7.1705C7.29048 7.38147 7.57663 7.5 7.875 7.5ZM7.875 11.25C8.17337 11.25 8.45952 11.1315 8.6705 10.9205C8.88147 10.7095 9 10.4234 9 10.125C9 9.82663 8.88147 9.54048 8.6705 9.3295C8.45952 9.11853 8.17337 9 7.875 9C7.57663 9 7.29048 9.11853 7.0795 9.3295C6.86853 9.54048 6.75 9.82663 6.75 10.125C6.75 10.4234 6.86853 10.7095 7.0795 10.9205C7.29048 11.1315 7.57663 11.25 7.875 11.25ZM9 13.875C9 14.1734 8.88147 14.4595 8.6705 14.6705C8.45952 14.8815 8.17337 15 7.875 15C7.57663 15 7.29048 14.8815 7.0795 14.6705C6.86853 14.4595 6.75 14.1734 6.75 13.875C6.75 13.5766 6.86853 13.2905 7.0795 13.0795C7.29048 12.8685 7.57663 12.75 7.875 12.75C8.17337 12.75 8.45952 12.8685 8.6705 13.0795C8.88147 13.2905 9 13.5766 9 13.875ZM11.625 7.5C11.9234 7.5 12.2095 7.38147 12.4205 7.1705C12.6315 6.95952 12.75 6.67337 12.75 6.375C12.75 6.07663 12.6315 5.79048 12.4205 5.5795C12.2095 5.36853 11.9234 5.25 11.625 5.25C11.3266 5.25 11.0405 5.36853 10.8295 5.5795C10.6185 5.79048 10.5 6.07663 10.5 6.375C10.5 6.67337 10.6185 6.95952 10.8295 7.1705C11.0405 7.38147 11.3266 7.5 11.625 7.5ZM12.75 10.125C12.75 10.4234 12.6315 10.7095 12.4205 10.9205C12.2095 11.1315 11.9234 11.25 11.625 11.25C11.3266 11.25 11.0405 11.1315 10.8295 10.9205C10.6185 10.7095 10.5 10.4234 10.5 10.125C10.5 9.82663 10.6185 9.54048 10.8295 9.3295C11.0405 9.11853 11.3266 9 11.625 9C11.9234 9 12.2095 9.11853 12.4205 9.3295C12.6315 9.54048 12.75 9.82663 12.75 10.125Z" fill="url(#paint3_linear_394_1362)"/>
<path d="M15.75 18.75H19.5V23.25H15.75V18.75Z" fill="url(#paint4_linear_394_1362)"/>
<path d="M16.836 13.4162C17.0564 13.2288 17.3362 13.126 17.6254 13.126C17.9146 13.126 18.1944 13.2288 18.4147 13.4162L22.071 16.5242C22.3432 16.7559 22.5007 17.0949 22.5007 17.4527V22.3127C22.5007 22.8302 22.0807 23.2502 21.5632 23.2502H19.1257V19.8752C19.1258 19.6768 19.0471 19.4865 18.9071 19.3459C18.7671 19.2053 18.5771 19.126 18.3787 19.1252H16.872C16.6736 19.126 16.4836 19.2053 16.3436 19.3459C16.2036 19.4865 16.125 19.6768 16.125 19.8752V23.2502H13.6875C13.17 23.2502 12.75 22.8302 12.75 22.3127V17.4527C12.75 17.0949 12.9067 16.7559 13.1797 16.5242L16.836 13.4162Z" fill="url(#paint5_linear_394_1362)"/>
<path fill-rule="evenodd" clip-rule="evenodd" d="M17.0151 12.0377C17.185 11.8921 17.4014 11.812 17.6252 11.812C17.849 11.812 18.0654 11.8921 18.2353 12.0377L23.4853 16.5377C23.6743 16.6996 23.7912 16.93 23.8103 17.1781C23.8295 17.4262 23.7492 17.6717 23.5873 17.8607C23.4254 18.0497 23.1951 18.1666 22.9469 18.1857C22.6988 18.2048 22.4533 18.1246 22.2643 17.9627L17.6248 13.984L12.9853 17.9612C12.7962 18.1205 12.5519 18.1986 12.3054 18.1786C12.059 18.1586 11.8305 18.042 11.6696 17.8543C11.5087 17.6666 11.4284 17.423 11.4463 17.1764C11.4642 16.9298 11.5788 16.7002 11.7651 16.5377L17.0151 12.0377Z" fill="url(#paint6_linear_394_1362)"/>
</g>
<defs>
<linearGradient id="paint0_linear_394_1362" x1="3" y1="2.15625" x2="22.9553" y2="24.054" gradientUnits="userSpaceOnUse">
<stop stop-color="#29C3FF"/>
<stop offset="1" stop-color="#2764E7"/>
</linearGradient>
<radialGradient id="paint1_radial_394_1362" cx="0" cy="0" r="1" gradientUnits="userSpaceOnUse" gradientTransform="translate(15 16.5) rotate(140.711) scale(5.32976 2.15367)">
<stop stop-color="#4A43CB"/>
<stop offset="0.914" stop-color="#4A43CB" stop-opacity="0"/>
</radialGradient>
<radialGradient id="paint2_radial_394_1362" cx="0" cy="0" r="1" gradientUnits="userSpaceOnUse" gradientTransform="translate(16.5 21) rotate(90) scale(7.5 5.4375)">
<stop stop-color="#4A43CB"/>
<stop offset="0.914" stop-color="#4A43CB" stop-opacity="0"/>
</radialGradient>
<linearGradient id="paint3_linear_394_1362" x1="9.675" y1="4.167" x2="13.2368" y2="16.9897" gradientUnits="userSpaceOnUse">
<stop stop-color="#FDFDFD"/>
<stop offset="1" stop-color="#B3E0FF"/>
</linearGradient>
<linearGradient id="paint4_linear_394_1362" x1="17.625" y1="18.75" x2="14.8035" y2="23.9768" gradientUnits="userSpaceOnUse">
<stop stop-color="#944600"/>
<stop offset="1" stop-color="#CD8E02"/>
</linearGradient>
<linearGradient id="paint5_linear_394_1362" x1="4.18275" y1="14.2487" x2="11.2357" y2="27.7764" gradientUnits="userSpaceOnUse">
<stop stop-color="#FFD394"/>
<stop offset="1" stop-color="#FFB357"/>
</linearGradient>
<linearGradient id="paint6_linear_394_1362" x1="18.2143" y1="10.0007" x2="17.1448" y2="17.6312" gradientUnits="userSpaceOnUse">
<stop stop-color="#FF921F"/>
<stop offset="1" stop-color="#EB4824"/>
</linearGradient>
<clipPath id="clip0_394_1362">
<rect width="24" height="24" fill="white"/>
</clipPath>
</defs>
</svg>
