<svg width="24" height="24" viewBox="0 0 24 24" fill="none" xmlns="http://www.w3.org/2000/svg">
<path d="M8.55472 4.61733C4.59847 4.12983 3.18772 6.11733 2.50822 7.03158C0.656475 9.76158 1.76947 12.7616 3.11722 14.2038C3.11722 14.2038 10.6877 21.5748 10.8985 21.7736C11.1092 21.9723 11.608 22.6526 12.8087 22.4591C13.8572 22.2903 14.1565 21.0236 14.1565 21.0236C14.1565 21.0236 14.9305 21.6551 16.0435 21.0236C16.9105 20.5316 16.8752 19.5476 16.8752 19.5476C16.8752 19.5476 17.8037 20.0126 18.7975 19.1726C19.6915 18.4151 19.1372 17.0861 19.1372 17.0861C19.1372 17.0861 19.9397 17.2181 20.5082 16.5941C21.277 15.7503 21.0122 14.6838 20.5082 14.2038L14.719 7.87533L14.2735 5.53158L8.55472 4.61733Z" fill="#FFC83D"/>
<path d="M20.0304 16.945L18.3609 15.2522C18.3263 15.2172 18.2851 15.1893 18.2397 15.1701C18.1943 15.151 18.1456 15.1409 18.0963 15.1406C18.047 15.1403 17.9982 15.1497 17.9525 15.1683C17.9069 15.1868 17.8654 15.2142 17.8303 15.2488C17.7952 15.2835 17.7673 15.3246 17.7482 15.3701C17.729 15.4155 17.719 15.4642 17.7187 15.5135C17.7184 15.5627 17.7278 15.6116 17.7464 15.6572C17.7649 15.7029 17.7923 15.7444 17.8269 15.7795L19.1499 17.1205L19.1372 17.086C19.1372 17.086 19.5737 17.158 20.0304 16.945ZM17.9837 19.6127L16.2512 17.6905C16.1845 17.6166 16.0913 17.5722 15.9919 17.567C15.8925 17.5619 15.7952 17.5965 15.7213 17.6631C15.6474 17.7297 15.603 17.823 15.5979 17.9224C15.5927 18.0217 15.6273 18.1191 15.6939 18.193L16.9389 19.5737C17.0882 19.6307 17.4864 19.747 17.9837 19.6127ZM15.4322 21.2635L14.0777 19.8287C14.0438 19.7929 14.0033 19.7641 13.9583 19.744C13.9134 19.7239 13.8649 19.7128 13.8157 19.7114C13.7664 19.71 13.7174 19.7183 13.6714 19.7359C13.6253 19.7534 13.5832 19.7799 13.5474 19.8137C13.5116 19.8475 13.4828 19.8881 13.4627 19.9331C13.4426 19.978 13.4315 20.0265 13.4301 20.0757C13.4287 20.125 13.437 20.174 13.4546 20.22C13.4721 20.2661 13.4986 20.3082 13.5324 20.344L14.2104 21.0617C14.3597 21.1592 14.8067 21.3992 15.4322 21.2635ZM13.8024 21.7907C13.2332 21.9422 12.1772 21.9895 11.4497 21.211L10.8677 21.7435L10.8984 21.7735C10.9204 21.7945 10.9454 21.8195 10.9734 21.8485C11.2194 22.1035 11.7309 22.633 12.8087 22.459C13.2752 22.384 13.5932 22.0915 13.8024 21.79" fill="#D67D00"/>
<path d="M4.78127 5.10994C3.51602 6.73444 1.56602 10.9412 5.01602 13.8287L3.93002 14.9949L3.11702 14.2037C1.77002 12.7622 0.656274 9.76219 2.50802 7.03144L2.53802 6.99019C2.93177 6.46069 3.56252 5.61094 4.75052 5.06494L4.78127 5.10994Z" fill="#F59F00"/>
<path d="M12.9377 17.7661C13.84 18.8086 12.7127 20.1376 12.1877 20.6956L4.25195 12.4381C5.73245 10.9366 6.71045 10.7858 7.37195 11.4376C8.03195 12.0893 7.72295 12.5506 7.72295 12.5506C7.72295 12.5506 8.61845 12.0421 9.5627 12.9728C10.5077 13.9036 9.8552 14.6131 9.8552 14.6131C9.8552 14.6131 10.8302 14.4376 11.5202 15.2108C12.2927 16.0786 11.8007 17.0858 11.8007 17.0858C11.8007 17.0858 12.3932 17.1368 12.9377 17.7661Z" fill="#D67D00"/>
<path d="M9.32865 6.00021C11.7542 5.02746 15.4337 4.53546 17.1212 4.51221C18.2694 4.51221 19.7319 4.78971 21.2814 6.60996C23.7564 9.51546 21.9024 12.832 20.4377 14.1797V13.1252C20.4377 13.1252 14.8082 8.22321 14.6252 8.05071C14.2877 7.73196 12.8987 7.82871 12.7502 7.87521C12.2972 8.01621 11.5127 8.25021 10.5002 8.62521C9.67665 8.93046 9.0234 8.68371 8.75415 8.05071C8.48415 7.41846 8.1234 6.48321 9.32865 6.00021Z" fill="#FFC83D"/>
<path d="M21.2327 13.2826C20.9968 13.6062 20.7306 13.9066 20.4377 14.1796C18.3677 12.3751 14.1542 8.68587 13.8167 8.36712C13.4792 8.04837 13.0862 8.06262 12.9377 8.10912C12.0559 8.38561 11.1806 8.68269 10.3127 9.00012C9.48921 9.30537 8.66046 8.68362 8.39121 8.05062C8.14371 7.47237 8.12421 6.64137 9.04371 6.13362L9.51771 5.92587L9.55521 5.91162C8.09046 7.01262 9.38421 8.35812 10.594 8.20362C11.0192 8.14887 11.719 8.00412 12.3985 7.82862C12.6685 7.75812 12.9332 7.63437 13.183 7.51812C13.6517 7.29837 14.068 7.10412 14.368 7.33587C15.493 8.20962 18.85 11.0619 21.2335 13.2826" fill="#D67D00"/>
<path d="M6.61535 12.6594C6.48278 12.4876 6.31768 12.3436 6.12947 12.2357C5.94126 12.1277 5.73362 12.0579 5.51842 12.0301C5.30322 12.0024 5.08467 12.0174 4.87524 12.0741C4.66582 12.1309 4.46962 12.2283 4.29785 12.3609L2.85935 13.5751C2.1971 14.1264 2.02535 15.1576 2.5091 15.8266C2.9471 16.4326 3.6191 16.6831 4.23635 16.5076C3.9626 17.1339 3.98585 17.9349 4.5116 18.3751C5.00285 18.7854 5.6096 19.0666 6.21785 18.8769C6.15935 19.2781 6.27785 19.7176 6.69035 20.1556C7.08035 20.5689 7.64735 20.7751 8.2556 20.6379C8.17535 21.0669 8.3111 21.5439 8.81285 22.0276C9.4271 22.6201 10.3729 22.6711 11.2616 21.8551L11.8406 21.1801C12.3056 20.5951 12.9491 19.5781 11.9876 18.7141C11.6553 18.4156 11.2736 18.2499 10.8769 18.2491C11.0921 17.7241 11.0883 17.0806 10.4643 16.4641C10.0743 16.0794 9.5966 15.9121 9.06935 16.0381C9.35435 15.4321 9.3476 14.8134 8.77685 14.2494C8.2586 13.7371 7.6196 13.4941 6.7946 13.9569C6.9401 13.5099 6.9056 13.0359 6.6146 12.6586" fill="#FFC83D"/>
<path d="M6.77591 12.9316L3.23291 16.4304C3.54641 16.5699 3.88766 16.6021 4.21541 16.5144L6.81716 13.9449L6.79541 13.9569C6.90791 13.6126 6.91241 13.2519 6.77591 12.9316ZM9.18491 14.8696L5.22041 18.8139C5.53916 18.9421 5.87891 18.9834 6.21941 18.8776L9.07466 16.0381L9.07091 16.0389C9.25466 15.6489 9.31616 15.2529 9.18491 14.8696ZM10.9302 17.1729L7.24166 20.5464C7.54466 20.6791 7.89041 20.7196 8.25041 20.6401L10.8852 18.2304C11.0127 17.9101 11.0577 17.5464 10.9302 17.1729Z" fill="#D67D00"/>
</svg>
