<svg width="32" height="32" viewBox="0 0 32 32" fill="none" xmlns="http://www.w3.org/2000/svg">
<path d="M10.9999 16.9998C10.9999 17.3535 10.8594 17.6926 10.6094 17.9426C10.3593 18.1927 10.0202 18.3332 9.66659 18.3332C9.31296 18.3332 8.97383 18.1927 8.72378 17.9426C8.47373 17.6926 8.33325 17.3535 8.33325 16.9998C8.33325 16.6462 8.47373 16.3071 8.72378 16.057C8.97383 15.807 9.31296 15.6665 9.66659 15.6665C10.0202 15.6665 10.3593 15.807 10.6094 16.057C10.8594 16.3071 10.9999 16.6462 10.9999 16.9998Z" fill="#D97706"/>
<path d="M7.16659 3.33325C6.14992 3.33325 5.1749 3.73712 4.45601 4.45601C3.73712 5.1749 3.33325 6.14992 3.33325 7.16659V21.4999C3.33325 22.5166 3.73712 23.4916 4.45601 24.2105C5.1749 24.9294 6.14992 25.3333 7.16659 25.3333H21.4999C22.5166 25.3333 23.4916 24.9294 24.2105 24.2105C24.9294 23.4916 25.3333 22.5166 25.3333 21.4999V7.16659C25.3333 6.14992 24.9294 5.1749 24.2105 4.45601C23.4916 3.73712 22.5166 3.33325 21.4999 3.33325H7.16659ZM12.6666 16.9999C12.6666 17.7956 12.3505 18.5586 11.7879 19.1212C11.2253 19.6838 10.4622 19.9999 9.66659 19.9999C8.87094 19.9999 8.10787 19.6838 7.54527 19.1212C6.98266 18.5586 6.66659 17.7956 6.66659 16.9999C6.66659 16.2043 6.98266 15.4412 7.54527 14.8786C8.10787 14.316 8.87094 13.9999 9.66659 13.9999C10.4622 13.9999 11.2253 14.316 11.7879 14.8786C12.3505 15.4412 12.6666 16.2043 12.6666 16.9999ZM6.66659 10.1666C6.66659 9.70659 7.03992 9.33325 7.49992 9.33325H21.1666C21.3876 9.33325 21.5996 9.42105 21.7558 9.57733C21.9121 9.73361 21.9999 9.94557 21.9999 10.1666C21.9999 10.3876 21.9121 10.5996 21.7558 10.7558C21.5996 10.9121 21.3876 10.9999 21.1666 10.9999H7.49992C7.03992 10.9999 6.66659 10.6266 6.66659 10.1666ZM14.8333 16.3333H21.1666C21.3876 16.3333 21.5996 16.421 21.7558 16.5773C21.9121 16.7336 21.9999 16.9456 21.9999 17.1666C21.9999 17.3876 21.9121 17.5996 21.7558 17.7558C21.5996 17.9121 21.3876 17.9999 21.1666 17.9999H14.8333C14.6122 17.9999 14.4003 17.9121 14.244 17.7558C14.0877 17.5996 13.9999 17.3876 13.9999 17.1666C13.9999 16.9456 14.0877 16.7336 14.244 16.5773C14.4003 16.421 14.6122 16.3333 14.8333 16.3333Z" fill="#D97706"/>
<path d="M10.1666 28.3333C9.54303 28.334 8.92873 28.1822 8.37717 27.8913C7.82561 27.6003 7.35351 27.179 7.00195 26.6639C7.05662 26.6657 7.11151 26.6666 7.16662 26.6666H21.5C22.8702 26.6666 24.1844 26.1223 25.1533 25.1533C26.1223 24.1844 26.6666 22.8702 26.6666 21.5V7.16662C26.6666 7.11195 26.6657 7.05706 26.6639 7.00195C27.179 7.35351 27.6003 7.82561 27.8913 8.37717C28.1822 8.92873 28.334 9.54303 28.3333 10.1666V21.5C28.3333 25.2733 25.2733 28.3333 21.5 28.3333H10.1666Z" fill="#D97706"/>
</svg>
