<svg width="24" height="24" viewBox="0 0 24 24" fill="none" xmlns="http://www.w3.org/2000/svg">
<path fill-rule="evenodd" clip-rule="evenodd" d="M19.0359 20.3248L15.2175 16.5052C15.134 16.4216 15.0678 16.3225 15.0226 16.2134C14.9774 16.1042 14.9541 15.9873 14.9541 15.8692C14.9541 15.751 14.9774 15.6341 15.0226 15.525C15.0678 15.4158 15.134 15.3167 15.2175 15.2332C15.3011 15.1496 15.4002 15.0834 15.5093 15.0382C15.6185 14.993 15.7354 14.9697 15.8535 14.9697C15.9717 14.9697 16.0886 14.993 16.1977 15.0382C16.3069 15.0834 16.406 15.1496 16.4895 15.2332L20.3085 19.0528C20.4772 19.2215 20.5719 19.4504 20.5719 19.689C20.5718 19.9276 20.477 20.1564 20.3082 20.3251C20.1395 20.4937 19.9106 20.5885 19.672 20.5884C19.4334 20.5884 19.2046 20.4935 19.0359 20.3248Z" fill="#F2C94C"/>
<path d="M14.7929 16.9297L18.6119 20.7493L19.4606 19.9009L15.6416 16.0813L14.7929 16.9297ZM14.7929 14.8093C14.5119 15.0906 14.354 15.4719 14.354 15.8695C14.354 16.2671 14.5119 16.6484 14.7929 16.9297L15.6416 16.0813C15.5855 16.0251 15.5543 15.9489 15.5543 15.8695C15.5543 15.7901 15.5858 15.7139 15.6419 15.6577L14.7929 14.8093ZM16.9139 14.8093C16.6326 14.5281 16.2511 14.3701 15.8534 14.3701C15.4556 14.3701 15.0742 14.5281 14.7929 14.8093L15.6419 15.6577C15.6981 15.6017 15.7742 15.5703 15.8535 15.5703C15.9329 15.5703 16.009 15.6017 16.0652 15.6577L16.9139 14.8093ZM20.7329 18.6289L16.9139 14.8093L16.0652 15.6577L19.8839 19.4773L20.7329 18.6289ZM20.7329 20.7493C21.0139 20.468 21.1718 20.0867 21.1718 19.6891C21.1718 19.2915 21.0139 18.9102 20.7329 18.6289L19.8839 19.4773C19.9399 19.5335 19.9714 19.6097 19.9714 19.6891C19.9714 19.7685 19.9399 19.8447 19.8839 19.9009L20.7329 20.7493ZM18.6119 20.7493C18.8932 21.0305 19.2746 21.1885 19.6724 21.1885C20.0701 21.1885 20.4516 21.0305 20.7329 20.7493L19.8839 19.9009C19.8277 19.9569 19.7516 19.9883 19.6722 19.9883C19.5929 19.9883 19.5168 19.9569 19.4606 19.9009L18.6119 20.7493Z" fill="#F2C94C"/>
<path d="M4.67898 8.72087C4.87038 7.99268 5.20376 7.30948 5.65998 6.71051C6.11619 6.11154 6.68625 5.60861 7.3374 5.2306C7.98856 4.85259 8.70798 4.60695 9.45434 4.50779C10.2007 4.40864 10.9593 4.45791 11.6866 4.65279C12.4138 4.84768 13.0954 5.18432 13.6922 5.6434C14.289 6.10247 14.7892 6.67492 15.1641 7.32788C15.539 7.98083 15.7812 8.70142 15.8768 9.44825C15.9723 10.1951 15.9194 10.9534 15.7211 11.6798C15.3287 13.1441 14.3707 14.3925 13.0578 15.1505C11.745 15.9085 10.1847 16.1139 8.72043 15.7215C7.25612 15.3291 6.00765 14.3711 5.24967 13.0583C4.4917 11.7454 4.28631 10.1852 4.67868 8.72087" fill="#2F80ED"/>
</svg>
