<svg width="32" height="32" viewBox="0 0 32 32" fill="none" xmlns="http://www.w3.org/2000/svg">
<path d="M5.3333 25.3333L4.0933 24.8399C4.0047 25.0628 3.97788 25.3056 4.01568 25.5424C4.05348 25.7793 4.15449 26.0017 4.30806 26.1859C4.46164 26.3702 4.66209 26.5097 4.88828 26.5896C5.11448 26.6695 5.35804 26.6869 5.5933 26.6399L5.3333 25.3333ZM11.608 24.0853L12.24 22.9106L11.8173 22.6839L11.348 22.7773L11.608 24.0853ZM7.49863 19.8893L8.73863 20.3826L8.95596 19.8306L8.69463 19.2986L7.49863 19.8893ZM25.3333 15.9999C25.3333 20.3279 21.5293 23.9999 16.6266 23.9999V26.6666C22.8146 26.6666 28 21.9813 28 15.9999H25.3333ZM7.9213 15.9999C7.9213 11.6719 11.7266 7.99992 16.628 7.99992V5.33325C10.44 5.33325 5.2533 10.0186 5.2533 15.9999H7.9213ZM16.628 7.99992C21.5293 7.99992 25.3333 11.6719 25.3333 15.9999H28C28 10.0186 22.816 5.33325 16.628 5.33325V7.99992ZM16.6266 23.9999C15.02 23.9999 13.524 23.5999 12.24 22.9106L10.976 25.2586C12.7137 26.1902 14.6549 26.6741 16.6266 26.6666V23.9999ZM5.5933 26.6399L11.868 25.3919L11.348 22.7773L5.0733 24.0253L5.5933 26.6413V26.6399ZM8.69463 19.2986C8.18703 18.2729 7.92332 17.1443 7.9213 15.9999H5.2533C5.2533 17.5999 5.6293 19.1173 6.3013 20.4799L8.69463 19.2986ZM6.25996 19.3959L4.0933 24.8413L6.57063 25.8253L8.73596 20.3813L6.25863 19.3959H6.25996Z" fill="#5D5D5D"/>
<path d="M12.0001 17.3332C12.7365 17.3332 13.3334 16.7362 13.3334 15.9998C13.3334 15.2635 12.7365 14.6665 12.0001 14.6665C11.2637 14.6665 10.6667 15.2635 10.6667 15.9998C10.6667 16.7362 11.2637 17.3332 12.0001 17.3332Z" fill="#5D5D5D"/>
<path d="M16.6666 17.3332C17.403 17.3332 17.9999 16.7362 17.9999 15.9998C17.9999 15.2635 17.403 14.6665 16.6666 14.6665C15.9302 14.6665 15.3333 15.2635 15.3333 15.9998C15.3333 16.7362 15.9302 17.3332 16.6666 17.3332Z" fill="#5D5D5D"/>
<path d="M21.3333 17.3332C22.0697 17.3332 22.6667 16.7362 22.6667 15.9998C22.6667 15.2635 22.0697 14.6665 21.3333 14.6665C20.597 14.6665 20 15.2635 20 15.9998C20 16.7362 20.597 17.3332 21.3333 17.3332Z" fill="#5D5D5D"/>
</svg>
