<svg width="32" height="32" viewBox="0 0 32 32" fill="none" xmlns="http://www.w3.org/2000/svg">
<path d="M5.97739 26.0049C4.35239 24.3474 4.35239 21.7024 5.97739 20.0449L10.6624 15.3599C11.1724 14.8499 11.8424 14.4674 12.5424 14.2774C13.2424 14.0874 13.9774 14.0874 14.6449 14.2449C15.3449 14.4349 16.0149 14.7874 16.5574 15.2974L16.6199 15.3599C18.2774 17.0174 18.2774 19.6624 16.6199 21.3199L11.9349 26.0049C10.2799 27.6624 7.60239 27.6624 5.97739 26.0049ZM19.2349 12.7474C16.1449 9.65743 11.0774 9.65743 7.98489 12.7474L3.33239 17.4324C0.242393 20.5224 0.242393 25.5899 3.33239 28.6824C6.42239 31.7749 11.4899 31.7724 14.5824 28.6824L19.2674 23.9974C22.3249 20.9049 22.3249 15.8399 19.2349 12.7474Z" fill="#84B0C1"/>
<path d="M16.7151 12.12C17.5551 11.6975 18.3576 11.9925 18.3576 11.9925C16.6226 10.71 14.7301 10.345 13.1001 10.4475C13.0901 10.46 13.0826 10.4725 13.0726 10.4875C12.3576 11.585 12.1976 13.035 12.6426 14.255C13.3126 14.09 14.0076 14.095 14.6426 14.2475C14.9026 14.3175 15.1001 14.385 15.4901 14.5675C15.4926 14.565 15.3551 12.805 16.7151 12.12ZM11.6901 14.615C11.7226 14.3725 11.7376 14.1275 11.7526 13.8825C11.8226 12.8275 12.0026 11.7775 12.2876 10.76C12.3076 10.6875 12.3276 10.61 12.3476 10.5325C11.5751 10.655 10.8176 10.89 10.1051 11.24C8.99509 12.6725 9.36009 14.5275 10.6626 15.3625C10.9601 15.065 11.3101 14.8125 11.6901 14.615Z" fill="#2F7889"/>
<path d="M26.0226 5.99496C27.6476 7.65246 27.6476 10.2975 26.0226 11.955L21.3376 16.64C20.8276 17.15 20.1576 17.5325 19.4576 17.7225C18.7576 17.9125 18.0226 17.9125 17.3551 17.755C16.6551 17.565 15.9851 17.2125 15.4426 16.7025L15.3801 16.64C13.7226 14.9825 13.7226 12.3375 15.3801 10.68L20.0651 5.99496C21.7201 4.33746 24.3976 4.33746 26.0226 5.99496ZM12.7651 19.2525C15.8551 22.3425 20.9226 22.3425 24.0151 19.2525L28.6676 14.5675C31.7576 11.4775 31.7576 6.40996 28.6676 3.31746C25.5776 0.224961 20.5101 0.227461 17.4176 3.31746L12.7351 8.00246C9.67511 11.095 9.67511 16.16 12.7651 19.2525Z" fill="#84B0C1"/>
<path d="M12.6124 9.85494C12.6224 9.84744 12.6324 9.83744 12.6424 9.82994C12.7749 9.71494 12.9224 9.60494 13.0949 9.57494C13.2674 9.54494 13.4699 9.62244 13.5299 9.78744C13.5749 9.90994 13.5349 10.0449 13.4924 10.1674C12.8349 12.1549 12.3074 14.6774 12.9474 16.7349C13.0099 16.9349 13.0699 17.1924 12.9024 17.3174C12.8049 17.3924 12.6599 17.3799 12.5524 17.3224C11.3774 16.6874 11.1724 14.9674 11.1174 13.7874C11.0524 12.2974 11.4649 10.8624 12.6124 9.85494Z" fill="#A8E3F0"/>
<path d="M17.8301 17.8351C17.6701 17.8151 17.5001 17.7826 17.5001 17.7826C17.5001 17.7826 17.4751 18.8501 16.6226 19.7351C15.6776 20.7151 14.7351 20.6901 14.7351 20.6901C15.2326 20.9776 16.2251 21.2751 16.5851 21.3601L16.6226 21.3226C17.5801 20.3626 17.9801 19.0726 17.8301 17.8351ZM22.6901 15.2876L21.3576 16.6201C21.6901 18.1051 21.6001 19.6651 21.0851 21.1051C21.7326 20.8751 22.3551 20.5576 22.9351 20.1551C23.8926 18.5151 23.6826 16.5776 22.6901 15.2876Z" fill="#2F7889"/>
<path d="M19.9726 17.5025C19.8151 17.105 19.5076 16.7025 19.1226 16.74C18.8826 16.7625 18.5101 16.9875 18.5351 17.675C18.5526 18.2075 18.7551 18.7275 18.4651 19.425C18.0401 20.445 18.1376 20.72 18.2401 20.8825C18.3526 21.06 18.5601 21.14 18.7526 21.1375C19.2601 21.135 19.6801 20.67 19.9101 20.16C20.2826 19.345 20.3051 18.3375 19.9726 17.5025ZM12.3126 27.045C12.4726 26.9125 12.8876 26.47 13.0801 26.75C13.0101 27.52 12.4176 28.1475 11.7676 28.5675C10.9676 29.085 10.0201 29.39 9.06756 29.3625C8.27756 29.34 6.96756 29.02 6.50756 28.2875C6.13256 27.6925 6.92506 27.59 7.36506 27.755C8.93256 28.3525 10.7051 28.365 12.3126 27.045Z" fill="#A8E3F0"/>
</svg>
