<svg width="24" height="24" viewBox="0 0 24 24" fill="none" xmlns="http://www.w3.org/2000/svg">
<path fill-rule="evenodd" clip-rule="evenodd" d="M16.7091 0.376944C16.8891 0.196444 17.1187 0.0735087 17.3687 0.0237554C17.6186 -0.0259979 17.8778 -0.000324019 18.1131 0.0975156L21.7594 1.60952C22.0739 1.73936 22.324 1.98853 22.4551 2.30245C22.5862 2.61638 22.5876 2.96947 22.4589 3.28437L20.9691 6.93066C20.8729 7.16611 20.709 7.36773 20.4981 7.50999C20.2873 7.65226 20.0389 7.72879 19.7846 7.72989C19.5302 7.73099 19.2812 7.65662 19.0692 7.51618C18.8571 7.37574 18.6914 7.17556 18.5931 6.94094L18.0051 5.53523L3.19714 11.8627C3.04181 11.9291 2.87491 11.9642 2.70599 11.9661C2.53706 11.9681 2.36941 11.9367 2.21262 11.8738C2.05582 11.8109 1.91294 11.7178 1.79214 11.5997C1.67134 11.4816 1.57498 11.3409 1.50857 11.1855C1.44216 11.0302 1.40699 10.8633 1.40508 10.6944C1.40317 10.5254 1.43455 10.3578 1.49743 10.201C1.56031 10.0442 1.65345 9.90131 1.77155 9.78051C1.88965 9.65971 2.03038 9.56336 2.18571 9.49694L17.0109 3.16266L16.4349 1.78266C16.336 1.54756 16.3093 1.28838 16.3581 1.03807C16.407 0.787762 16.5292 0.557631 16.7091 0.376944ZM21.4286 9.39409C21.8832 9.39409 22.3193 9.5747 22.6408 9.89619C22.9622 10.2177 23.1429 10.6537 23.1429 11.1084V23.1084C23.1429 23.3357 23.0526 23.5537 22.8918 23.7145C22.7311 23.8752 22.513 23.9655 22.2857 23.9655H18C17.7727 23.9655 17.5547 23.8752 17.3939 23.7145C17.2332 23.5537 17.1429 23.3357 17.1429 23.1084V11.1084C17.1429 10.6537 17.3235 10.2177 17.645 9.89619C17.9665 9.5747 18.4025 9.39409 18.8571 9.39409H21.4286ZM14.0691 12.4661C13.7474 12.1452 13.3115 11.9652 12.8571 11.9655H10.2857C9.83106 11.9655 9.39502 12.1461 9.07353 12.4676C8.75204 12.7891 8.57143 13.2251 8.57143 13.6798V23.1084C8.57143 23.3357 8.66173 23.5537 8.82248 23.7145C8.98323 23.8752 9.20124 23.9655 9.42857 23.9655H13.7143C13.9416 23.9655 14.1596 23.8752 14.3204 23.7145C14.4811 23.5537 14.5714 23.3357 14.5714 23.1084V13.6798C14.5716 13.4544 14.5273 13.2312 14.4411 13.0229C14.355 12.8147 14.2285 12.6254 14.0691 12.4661ZM4.28571 14.5369C4.74037 14.5369 5.17641 14.7176 5.4979 15.039C5.81939 15.3605 6 15.7966 6 16.2512V23.1084C6 23.3357 5.90969 23.5537 5.74895 23.7145C5.5882 23.8752 5.37019 23.9655 5.14286 23.9655H0.857143C0.629814 23.9655 0.411797 23.8752 0.251051 23.7145C0.0903059 23.5537 0 23.3357 0 23.1084V16.2512C0 15.7966 0.180612 15.3605 0.502103 15.039C0.823594 14.7176 1.25963 14.5369 1.71429 14.5369H4.28571Z" fill="#444444"/>
</svg>
