<svg width="12" height="12" viewBox="0 0 12 12" fill="none" xmlns="http://www.w3.org/2000/svg">
<g clip-path="url(#clip0_490_459)">
<path d="M10.2034 8.17328C9.6678 7.59295 9.01781 7.12982 8.2944 6.81306C7.57098 6.49629 6.78981 6.33276 6.00008 6.33276C5.21035 6.33276 4.42918 6.49629 3.70577 6.81306C2.98235 7.12982 2.33237 7.59295 1.79675 8.17328C1.71378 8.26455 1.66748 8.38327 1.66675 8.50661V10.5066C1.6685 10.6381 1.72195 10.7635 1.81553 10.8559C1.90911 10.9482 2.03529 11 2.16675 10.9999H9.83342C9.96602 10.9999 10.0932 10.9473 10.187 10.8535C10.2807 10.7597 10.3334 10.6326 10.3334 10.4999V8.49995C10.3311 8.37891 10.2849 8.26284 10.2034 8.17328Z" fill="#0D6060"/>
<path d="M6.00008 5.66667C7.28875 5.66667 8.33341 4.622 8.33341 3.33333C8.33341 2.04467 7.28875 1 6.00008 1C4.71142 1 3.66675 2.04467 3.66675 3.33333C3.66675 4.622 4.71142 5.66667 6.00008 5.66667Z" fill="#0D6060"/>
</g>
<defs>
<clipPath id="clip0_490_459">
<rect width="12" height="12" fill="white"/>
</clipPath>
</defs>
</svg>
