<svg width="24" height="24" viewBox="0 0 24 24" fill="none" xmlns="http://www.w3.org/2000/svg">
<path d="M23.3727 12C23.3727 14.2027 18.278 19.3334 11.9947 19.3334C5.71137 19.3334 0.616699 14.8327 0.616699 12C0.616699 9.79068 23.3727 9.79068 23.3727 12Z" fill="#E1E8ED"/>
<path d="M23.3727 12.0001H0.616699C0.616699 9.79141 5.71137 4.66675 11.9947 4.66675C18.278 4.66675 23.3727 9.79075 23.3727 12.0001Z" fill="#292F33"/>
<path d="M22.5448 11.9999C22.5448 13.9359 17.8201 18.4446 11.9941 18.4446C6.16809 18.4446 1.44409 14.4879 1.44409 11.9999C1.44409 10.0586 6.16742 5.55591 11.9941 5.55591C17.8201 5.55524 22.5448 10.0586 22.5448 11.9999Z" fill="#F5F8FA"/>
<path d="M12 17.6387C15.1141 17.6387 17.6387 15.1141 17.6387 12C17.6387 8.88585 15.1141 6.36133 12 6.36133C8.88585 6.36133 6.36133 8.88585 6.36133 12C6.36133 15.1141 8.88585 17.6387 12 17.6387Z" fill="#8B5E3C"/>
<path d="M12 15.1387C13.7334 15.1387 15.1387 13.7334 15.1387 12C15.1387 10.2666 13.7334 8.86133 12 8.86133C10.2666 8.86133 8.86133 10.2666 8.86133 12C8.86133 13.7334 10.2666 15.1387 12 15.1387Z" fill="#292F33"/>
<path d="M9.98861 11.3334C10.725 11.3334 11.3219 10.7365 11.3219 10.0001C11.3219 9.2637 10.725 8.66675 9.98861 8.66675C9.25223 8.66675 8.65527 9.2637 8.65527 10.0001C8.65527 10.7365 9.25223 11.3334 9.98861 11.3334Z" fill="#F5F8FA"/>
</svg>
