<svg width="16" height="16" viewBox="0 0 16 16" fill="none" xmlns="http://www.w3.org/2000/svg">
<path d="M6.04793 0.999998C5.69892 0.992267 5.35978 1.11614 5.09793 1.347C4.67943 1.722 4.73593 2.0805 4.36243 2.6075C4.25804 2.77591 4.12023 2.92115 3.95753 3.03423C3.79482 3.14732 3.61067 3.22586 3.41643 3.265L3.40143 3.2685C3.13908 3.34127 2.90579 3.49367 2.73374 3.70467C2.5617 3.91567 2.45939 4.17487 2.44093 4.4465C2.11593 6.991 2.99093 10.9465 5.10193 13.112C5.67779 13.6583 6.3056 14.1471 6.97643 14.5715C7.66631 14.8095 8.41604 14.8095 9.10593 14.5715C9.78404 14.1524 10.4159 13.6626 10.9909 13.1105C13.0344 11.0145 13.9824 7.0415 13.6519 4.4455C13.6363 4.17031 13.5332 3.90729 13.3578 3.6947C13.1824 3.48212 12.9437 3.33106 12.6764 3.2635C12.4822 3.22435 12.298 3.14582 12.1353 3.03273C11.9726 2.91965 11.8348 2.77441 11.7304 2.606C11.3924 2.129 11.3969 1.706 10.9949 1.346C10.7331 1.11496 10.394 0.990905 10.0449 0.998498L6.04793 0.999998Z" fill="#E6E6E6"/>
<path d="M10.0043 1.75H7.99982L6.39282 7.9595L7.99982 14.25C8.99982 14.25 8.99982 14 9.99982 13.25C9.99982 13.25 13.2498 11 12.9998 4.75C12.9998 4.75 13.0008 4.125 12.4998 4C11.2498 3.75 10.7498 2.25 10.7498 2.25C10.6838 2.083 10.4998 1.75 10.0043 1.75Z" fill="#AEDDFF"/>
<path d="M6.00947 1.75H8.01347V14.25C7.01347 14.25 7.01347 14 6.01347 13.25C6.01347 13.25 2.76347 11 3.01347 4.75C3.01347 4.75 3.01247 4.125 3.51347 4C4.76347 3.75 5.26347 2.25 5.26347 2.25C5.32947 2.083 5.51347 1.75 6.00947 1.75Z" fill="#00A6ED"/>
</svg>
