<svg width="24" height="24" viewBox="0 0 24 24" fill="none" xmlns="http://www.w3.org/2000/svg">
<path d="M14.154 12.462H18.231V11.462H14.154V12.462ZM14.154 9.692H18.231V8.692H14.154V9.692ZM5.769 15.308H12.385V15.142C12.385 14.5587 12.0917 14.107 11.505 13.787C10.9183 13.467 10.109 13.307 9.077 13.307C8.045 13.307 7.23534 13.467 6.648 13.787C6.06067 14.107 5.76767 14.5587 5.769 15.142V15.308ZM10.143 11.258C10.4323 10.9693 10.577 10.614 10.577 10.192C10.577 9.77 10.4323 9.41467 10.143 9.126C9.85367 8.83733 9.49834 8.69267 9.077 8.692C8.65567 8.69133 8.30034 8.836 8.011 9.126C7.72167 9.416 7.577 9.77133 7.577 10.192C7.577 10.6127 7.72167 10.9683 8.011 11.259C8.30034 11.5497 8.65567 11.694 9.077 11.692C9.49834 11.69 9.85367 11.5447 10.143 11.258ZM4.615 19C4.155 19 3.77067 18.846 3.462 18.538C3.15334 18.23 2.99934 17.8453 3 17.384V6.616C3 6.15533 3.15434 5.771 3.463 5.463C3.77167 5.155 4.15567 5.00067 4.615 5H19.385C19.845 5 20.229 5.15433 20.537 5.463C20.845 5.77167 20.9993 6.156 21 6.616V17.385C21 17.845 20.8457 18.2293 20.537 18.538C20.2283 18.8467 19.8443 19.0007 19.385 19H4.615Z" fill="#F59E0B"/>
</svg>
