<svg width="24" height="24" viewBox="0 0 24 24" fill="none" xmlns="http://www.w3.org/2000/svg">
<path d="M17.0999 10.2749C17.2365 10.1335 17.3121 9.94404 17.3104 9.74739C17.3087 9.55074 17.2298 9.36263 17.0908 9.22358C16.9517 9.08452 16.7636 9.00564 16.5669 9.00393C16.3703 9.00223 16.1808 9.07782 16.0394 9.21444L10.5644 14.6894L8.08939 12.2144C7.94794 12.0778 7.75849 12.0022 7.56184 12.0039C7.36519 12.0056 7.17709 12.0845 7.03803 12.2236C6.89897 12.3626 6.8201 12.5507 6.81839 12.7474C6.81668 12.944 6.89227 13.1335 7.02889 13.2749L10.0289 16.2749C10.1695 16.4155 10.3603 16.4945 10.5591 16.4945C10.758 16.4945 10.9487 16.4155 11.0894 16.2749L17.0894 10.2749H17.0999Z" fill="#065F46"/>
</svg>
