<svg width="12" height="12" viewBox="0 0 12 12" fill="none" xmlns="http://www.w3.org/2000/svg">
<g clip-path="url(#clip0_490_987)">
<path d="M1.37102 6.67491L6.67502 1.37016C6.95361 1.09157 7.28433 0.87059 7.64832 0.719822C8.01231 0.569054 8.40242 0.491455 8.7964 0.491455C9.19038 0.491455 9.58049 0.569054 9.94448 0.719822C10.3085 0.87059 10.6392 1.09157 10.9178 1.37016C11.1964 1.64874 11.4173 1.97947 11.5681 2.34345C11.7189 2.70744 11.7965 3.09756 11.7965 3.49153C11.7965 3.88551 11.7189 4.27563 11.5681 4.63961C11.4173 5.0036 11.1964 5.33432 10.9178 5.61291L5.61527 10.9162C5.33679 11.1949 5.00613 11.416 4.64218 11.567C4.27823 11.7179 3.88811 11.7957 3.4941 11.7959C3.10009 11.796 2.7099 11.7186 2.34582 11.568C1.98173 11.4174 1.65088 11.1965 1.37215 10.918C1.09342 10.6395 0.872269 10.3089 0.721327 9.94494C0.570385 9.58099 0.492606 9.19087 0.492432 8.79686C0.492258 8.40285 0.569692 8.01266 0.720312 7.64858C0.870933 7.28449 1.09254 6.95364 1.37102 6.67491ZM8.21702 7.25316L10.3868 5.08341C10.5985 4.87508 10.7668 4.62689 10.8821 4.35317C10.9974 4.07945 11.0574 3.78561 11.0586 3.4886C11.0598 3.19158 11.0021 2.89728 10.889 2.62265C10.7758 2.34803 10.6095 2.09852 10.3994 1.88852C10.1894 1.67853 9.93981 1.51219 9.66516 1.39912C9.39051 1.28605 9.09619 1.22848 8.79918 1.22972C8.50216 1.23096 8.20834 1.291 7.93464 1.40637C7.66095 1.52174 7.4128 1.69016 7.20452 1.90191L5.03477 4.07166L8.21702 7.25316Z" fill="#D41616"/>
</g>
<defs>
<clipPath id="clip0_490_987">
<rect width="12" height="12" fill="white"/>
</clipPath>
</defs>
</svg>
