<svg width="20" height="20" viewBox="0 0 20 20" fill="none" xmlns="http://www.w3.org/2000/svg">
<path d="M13.3334 8.33333C13.3334 6.49167 11.8417 5 10.0001 5C8.15841 5 6.66675 6.49167 6.66675 8.33333C6.66675 10.175 8.15841 11.6667 10.0001 11.6667C11.8417 11.6667 13.3334 10.175 13.3334 8.33333ZM8.33341 8.33333C8.33341 7.41667 9.08341 6.66667 10.0001 6.66667C10.9167 6.66667 11.6667 7.41667 11.6667 8.33333C11.6667 9.25 10.9167 10 10.0001 10C9.08341 10 8.33341 9.25 8.33341 8.33333Z" fill="#6B7280"/>
<path d="M9.51666 18.1751C9.65833 18.2751 9.83333 18.3334 10 18.3334C10.1667 18.3334 10.3417 18.2834 10.4833 18.1751C10.7333 17.9918 16.6917 13.7001 16.6667 8.32511C16.6667 4.65011 13.675 1.65845 10 1.65845C6.325 1.65845 3.33333 4.65011 3.33333 8.32511C3.30833 13.6918 9.26666 17.9918 9.51666 18.1751ZM10 3.33345C12.7583 3.33345 15 5.57511 15 8.33345C15.0167 12.0334 11.3417 15.3584 10 16.4501C8.65833 15.3584 4.98333 12.0418 5 8.33345C5 5.57511 7.24166 3.33345 10 3.33345Z" fill="#6B7280"/>
</svg>
