<svg width="12" height="12" viewBox="0 0 12 12" fill="none" xmlns="http://www.w3.org/2000/svg">
<g clip-path="url(#clip0_78_2869)">
<path d="M5.91802 8.92959L2.91802 10.078C2.77974 10.1296 2.63443 10.0241 2.64146 9.87646L2.80552 6.66787C2.80787 6.61865 2.79146 6.56943 2.76099 6.52959L0.740677 4.03115C0.646927 3.91631 0.703177 3.74522 0.846146 3.70537L3.94927 2.871C3.99849 2.85693 4.04068 2.82646 4.06646 2.78428L5.81958 0.0936523C5.89927 -0.0305664 6.08208 -0.0305664 6.16177 0.0936523L7.9149 2.78662C7.94302 2.82881 7.98521 2.85928 8.03208 2.87334L11.1352 3.70772C11.2782 3.74521 11.3344 3.91865 11.2407 4.0335L9.22271 6.53193C9.19224 6.57178 9.17583 6.621 9.17818 6.67022L9.34224 9.87881C9.34927 10.0265 9.20396 10.1319 9.06568 10.0804L6.06568 8.93193C6.01646 8.91318 5.9649 8.91318 5.91802 8.92959Z" fill="#FFB636"/>
<path d="M10.6899 1.2117L9.72893 0.25076C9.70081 0.222635 9.66331 0.210917 9.62581 0.215604C9.58831 0.220292 9.55315 0.243729 9.5344 0.276542L8.543 2.22889C8.51487 2.2781 8.52425 2.3367 8.56409 2.37654C8.58753 2.39998 8.62034 2.4117 8.65081 2.4117C8.6719 2.4117 8.693 2.40701 8.71175 2.39529L10.6617 1.40623C10.6946 1.38748 10.718 1.35467 10.7227 1.31482C10.7297 1.27732 10.7157 1.23982 10.6899 1.2117ZM3.49456 2.23123L2.50315 0.278885C2.4844 0.246073 2.45159 0.222635 2.41175 0.217948C2.37425 0.21326 2.3344 0.224979 2.30862 0.253104L1.34768 1.21404C1.31956 1.24217 1.30784 1.27967 1.31253 1.31717C1.31722 1.35467 1.34065 1.38982 1.37347 1.40857L3.32581 2.39998C3.34456 2.4117 3.36565 2.41639 3.38675 2.41639C3.41956 2.41639 3.45003 2.40467 3.47347 2.38123C3.51331 2.33904 3.52034 2.2781 3.49456 2.23123ZM6.79221 11.8406L6.11253 9.75935C6.10784 9.73826 6.09612 9.71951 6.08206 9.70545C6.05862 9.68201 6.02815 9.67029 5.99534 9.67029C5.93909 9.67029 5.89222 9.70779 5.87581 9.7617L5.19612 11.8429C5.18675 11.8804 5.19378 11.9203 5.21722 11.9508C5.24065 11.9812 5.27581 12 5.31565 12H6.67268C6.71018 12 6.74768 11.9812 6.77112 11.9508C6.7969 11.9179 6.80393 11.8781 6.79221 11.8406Z" fill="#FFD469"/>
</g>
<defs>
<clipPath id="clip0_78_2869">
<rect width="12" height="12" fill="white"/>
</clipPath>
</defs>
</svg>
