<svg width="20" height="20" viewBox="0 0 20 20" fill="none" xmlns="http://www.w3.org/2000/svg">
<path d="M9.99992 18.3334C8.06936 17.8473 6.47547 16.7395 5.21825 15.0101C3.96103 13.2806 3.3327 11.3606 3.33325 9.25008V4.16675L9.99992 1.66675L16.6666 4.16675V9.25008C16.6666 11.3612 16.0383 13.2815 14.7816 15.0109C13.5249 16.7404 11.931 17.8479 9.99992 18.3334ZM9.99992 16.5834C11.4444 16.1251 12.6388 15.2084 13.5833 13.8334C14.5277 12.4584 14.9999 10.9306 14.9999 9.25008V5.31258L9.99992 3.43758L4.99992 5.31258V9.25008C4.99992 10.9306 5.47214 12.4584 6.41659 13.8334C7.36103 15.2084 8.55547 16.1251 9.99992 16.5834Z" fill="#6B7280"/>
</svg>
