<svg width="16" height="16" viewBox="0 0 16 16" fill="none" xmlns="http://www.w3.org/2000/svg">
<path d="M10.6666 11.3334V12.6668H1.33325V11.3334C1.33325 11.3334 1.33325 8.66677 5.99992 8.66677C10.6666 8.66677 10.6666 11.3334 10.6666 11.3334ZM8.33325 5.00011C8.33325 4.53862 8.1964 4.08749 7.94001 3.70378C7.68362 3.32006 7.31921 3.02099 6.89285 2.84439C6.46649 2.66778 5.99733 2.62157 5.54471 2.71161C5.09209 2.80164 4.67633 3.02387 4.35 3.35019C4.02368 3.67651 3.80145 4.09227 3.71142 4.5449C3.62139 4.99752 3.6676 5.46667 3.8442 5.89303C4.0208 6.31939 4.31987 6.68381 4.70359 6.9402C5.0873 7.19659 5.53843 7.33344 5.99992 7.33344C6.61876 7.33344 7.21225 7.08761 7.64983 6.65002C8.08742 6.21244 8.33325 5.61894 8.33325 5.00011ZM10.6266 8.66677C11.0364 8.98394 11.3718 9.38706 11.609 9.84778C11.8463 10.3085 11.9797 10.8156 11.9999 11.3334V12.6668H14.6666V11.3334C14.6666 11.3334 14.6666 8.91344 10.6266 8.66677ZM9.99992 2.66677C9.54111 2.66464 9.09245 2.80179 8.71325 3.06011C9.11821 3.62593 9.33596 4.3043 9.33596 5.00011C9.33596 5.69592 9.11821 6.37428 8.71325 6.94011C9.09245 7.19842 9.54111 7.33557 9.99992 7.33344C10.6188 7.33344 11.2122 7.08761 11.6498 6.65002C12.0874 6.21244 12.3333 5.61894 12.3333 5.00011C12.3333 4.38127 12.0874 3.78778 11.6498 3.35019C11.2122 2.91261 10.6188 2.66677 9.99992 2.66677Z" fill="#F59E0B"/>
</svg>
