<svg width="12" height="12" viewBox="0 0 12 12" fill="none" xmlns="http://www.w3.org/2000/svg">
<path d="M6.5 5.75C6.16848 5.75 5.85054 5.6183 5.61612 5.38388C5.3817 5.14946 5.25 4.83152 5.25 4.5C5.25 4.16848 5.3817 3.85054 5.61612 3.61612C5.85054 3.3817 6.16848 3.25 6.5 3.25C6.83152 3.25 7.14946 3.3817 7.38388 3.61612C7.6183 3.85054 7.75 4.16848 7.75 4.5C7.75 4.66415 7.71767 4.8267 7.65485 4.97835C7.59203 5.13001 7.49996 5.26781 7.38388 5.38388C7.26781 5.49996 7.13001 5.59203 6.97835 5.65485C6.8267 5.71767 6.66415 5.75 6.5 5.75ZM6.5 1C5.57174 1 4.6815 1.36875 4.02513 2.02513C3.36875 2.6815 3 3.57174 3 4.5C3 7.125 6.5 11 6.5 11C6.5 11 10 7.125 10 4.5C10 3.57174 9.63125 2.6815 8.97487 2.02513C8.3185 1.36875 7.42826 1 6.5 1Z" fill="#6B7280"/>
</svg>
