<svg width="12" height="12" viewBox="0 0 12 12" fill="none" xmlns="http://www.w3.org/2000/svg">
<g clip-path="url(#clip0_490_1004)">
<path d="M6.37978 0.677813L7.64166 3.55594C7.68915 3.66424 7.76482 3.75781 7.86079 3.8269C7.95676 3.89599 8.06951 3.93807 8.18728 3.94875L11.2613 4.22438C11.6092 4.275 11.7479 4.70156 11.4957 4.94719L9.18009 6.8925C8.99259 7.05 8.90728 7.2975 8.95884 7.53656L9.63197 10.6875C9.69103 11.0334 9.32822 11.2978 9.01697 11.1337L6.33384 9.5625C6.23266 9.50308 6.11744 9.47175 6.00009 9.47175C5.88275 9.47175 5.76753 9.50308 5.66634 9.5625L2.98322 11.1328C2.67291 11.2959 2.30916 11.0325 2.36822 10.6866L3.04134 7.53562C3.09197 7.29656 3.00759 7.04906 2.82009 6.89156L0.50353 4.94812C0.25228 4.70344 0.39103 4.27594 0.737905 4.22531L3.81197 3.94969C3.92974 3.93901 4.04249 3.89693 4.13846 3.82784C4.23443 3.75875 4.3101 3.66517 4.35759 3.55687L5.61947 0.67875C5.77603 0.36375 6.22416 0.36375 6.37978 0.677813Z" fill="#FDD835"/>
<path d="M6.28791 3.72836L6.07416 1.60773C6.06572 1.48961 6.04135 1.28711 6.23072 1.28711C6.38072 1.28711 6.46228 1.5993 6.46228 1.5993L7.10353 3.3018C7.34541 3.94961 7.24604 4.1718 7.0126 4.30305C6.74447 4.45305 6.34885 4.33586 6.28791 3.72836Z" fill="#FFFF8D"/>
<path d="M8.93253 6.70394L10.7719 5.26863C10.8628 5.19269 11.0269 5.07176 10.8957 4.93394C10.7916 4.82519 10.5103 4.98176 10.5103 4.98176L8.90065 5.61082C8.42065 5.77676 8.1019 6.02238 8.07378 6.33176C8.03721 6.74426 8.40753 7.06207 8.93253 6.70394Z" fill="#F4B400"/>
</g>
<defs>
<clipPath id="clip0_490_1004">
<rect width="12" height="12" fill="white"/>
</clipPath>
</defs>
</svg>
