<svg width="16" height="16" viewBox="0 0 16 16" fill="none" xmlns="http://www.w3.org/2000/svg">
<path d="M9.69994 6.09995C10.5749 5.92495 11.4249 6.01245 11.8499 6.07495C12.3249 6.13745 12.9874 6.23745 13.4999 6.47495C14.0874 6.73745 14.2374 7.18745 14.2499 7.72495C14.2624 8.22495 14.1124 8.52495 13.9374 8.68745C14.4624 8.97495 14.5874 9.31245 14.5624 9.87495C14.5374 10.375 14.3124 10.7625 13.8624 10.9875C14.2249 11.375 14.2999 11.675 14.2374 12.2625C14.1874 12.8125 13.9749 13.1375 13.1124 13.3875C13.2749 13.5625 13.3249 13.8625 13.3124 14.1375C13.2874 14.4625 13.1874 14.775 12.7374 15C12.6124 15.0625 11.8749 15.425 10.3374 14.9375C9.03744 15.1625 7.22494 15.05 5.78744 14.3625C4.42494 14.35 2.81244 14.2375 2.68744 14.2375C2.54994 14.2375 2.28744 14.175 2.16244 13.825C2.03744 13.475 1.64994 10.8375 2.01244 9.24995C2.06244 9.02495 2.24994 8.89995 2.41244 8.88745C2.57494 8.87495 3.48744 8.77495 3.69994 8.74995C4.82494 8.61245 4.54994 7.63745 5.84994 6.08745C6.46244 5.34995 7.71244 4.83745 7.78744 3.19995C7.81244 2.64995 7.84994 1.74995 7.84994 1.62495C7.84994 0.837451 9.37494 0.687451 9.92494 1.77495C10.9124 3.71245 10.0999 4.66245 9.69994 6.09995Z" fill="#FFCA28"/>
<mask id="mask0_490_1037" style="mask-type:luminance" maskUnits="userSpaceOnUse" x="1" y="0" width="14" height="16">
<path d="M9.69994 6.09995C10.5749 5.92495 11.4249 6.01245 11.8499 6.07495C12.3249 6.13745 12.9874 6.23745 13.4999 6.47495C14.0874 6.73745 14.2374 7.18745 14.2499 7.72495C14.2624 8.22495 14.1124 8.52495 13.9374 8.68745C14.4624 8.97495 14.5874 9.31245 14.5624 9.87495C14.5374 10.375 14.3124 10.7625 13.8624 10.9875C14.2249 11.375 14.2999 11.675 14.2374 12.2625C14.1874 12.8125 13.9749 13.1375 13.1124 13.3875C13.2749 13.5625 13.3249 13.8625 13.3124 14.1375C13.2874 14.4625 13.1874 14.775 12.7374 15C12.6124 15.0625 11.8749 15.425 10.3374 14.9375C9.03744 15.1625 7.22494 15.05 5.78744 14.3625C4.42494 14.35 2.81244 14.2375 2.68744 14.2375C2.54994 14.2375 2.28744 14.175 2.16244 13.825C2.03744 13.475 1.64994 10.8375 2.01244 9.24995C2.06244 9.02495 2.24994 8.89995 2.41244 8.88745C2.57494 8.87495 3.48744 8.77495 3.69994 8.74995C4.82494 8.61245 4.54994 7.63745 5.84994 6.08745C6.46244 5.34995 7.71244 4.83745 7.78744 3.19995C7.81244 2.64995 7.84994 1.74995 7.84994 1.62495C7.84994 0.837451 9.37494 0.687451 9.92494 1.77495C10.9124 3.71245 10.0999 4.66245 9.69994 6.09995Z" fill="white"/>
</mask>
<g mask="url(#mask0_490_1037)">
<path d="M2 9.02505C2.0125 9.21255 2 9.48755 2.35 9.48755C2.7 9.48755 3.5375 9.40005 3.7125 9.37505C4.05 9.33755 4.5875 9.06255 4.7875 8.62505C4.9625 8.26255 5.375 7.31255 5.375 7.31255C5.375 7.31255 6.25 4.81255 6.575 4.77505C7.0875 4.71255 8.0625 4.60005 8.0625 3.15005C8.0625 2.70005 8.1125 2.02505 8.1125 1.90005C8.15 0.937549 9.225 1.30005 9.65 1.76255L10.1 1.38755L9.3 0.675049C9.3 0.675049 7.625 0.762549 7.6375 0.775049C7.675 0.787549 2 9.02505 2 9.02505ZM2.075 13.85L5.5125 13.975V14.5L2.175 14.325L2.075 13.85ZM13.925 6.07505L14.8 7.65005L14.575 12.8625L12.9 15.4L10.4 15.3375C10.4 15.3375 9.7 13.925 9.6 13.6625C9.5 13.4125 9.225 12.9125 8.6875 12.1375C8.1625 11.3625 8.525 10.6875 8.8875 10.425C9.1 10.275 9.275 9.77505 9.3 9.47505C9.325 9.17505 9.425 6.88755 9.45 6.21255C9.475 5.53755 10.0875 5.37505 10.35 5.37505L13.925 6.07505ZM11.45 6.95005C11 7.00005 10.775 7.51255 10.775 8.05005C10.7875 8.95005 11.1375 8.93755 11.5125 9.01255C11.6125 9.03755 11.6625 9.20005 11.5125 9.22505C10.8625 9.28755 10.7375 9.85005 10.7375 10.2875C10.7375 11.1125 11.3375 11.1875 11.4375 11.1875C11.6 11.2 11.65 11.4 11.4375 11.4125C11.025 11.4375 10.775 11.85 10.775 12.3375C10.775 12.7125 10.8875 13.1 11.5375 13.2875C11.6125 13.3125 11.725 13.4875 11.5125 13.5125C10.95 13.6 10.9375 13.875 10.925 14.2375C10.925 14.65 11.125 14.775 11.375 14.85C11.5875 14.9 12.0125 14.9125 12.25 14.875C12.825 14.775 13.3 14.1375 12.8 13.45H12C11.925 13.45 11.925 13.35 12.025 13.35C13.3875 13.275 13.7875 12.7875 13.8625 12.2375C13.9125 11.8375 13.8 11.425 13.4625 11.125C13.4125 11.075 13.3375 11.1 13.25 11.1C14.75 10.2875 14.2 9.02505 13.475 8.90005C13.3375 8.87505 13.2125 8.86255 13.3375 8.81255C14.075 8.55005 14.2625 6.50005 12.5875 6.56255C12.6125 6.56255 11.8125 6.91255 11.45 6.95005Z" fill="#FAA700"/>
</g>
<mask id="mask1_490_1037" style="mask-type:luminance" maskUnits="userSpaceOnUse" x="1" y="0" width="14" height="16">
<path d="M9.69994 6.09995C10.5749 5.92495 11.4249 6.01245 11.8499 6.07495C12.3249 6.13745 12.9874 6.23745 13.4999 6.47495C14.0874 6.73745 14.2374 7.18745 14.2499 7.72495C14.2624 8.22495 14.1124 8.52495 13.9374 8.68745C14.4624 8.97495 14.5874 9.31245 14.5624 9.87495C14.5374 10.375 14.3124 10.7625 13.8624 10.9875C14.2249 11.375 14.2999 11.675 14.2374 12.2625C14.1874 12.8125 13.9749 13.1375 13.1124 13.3875C13.2749 13.5625 13.3249 13.8625 13.3124 14.1375C13.2874 14.4625 13.1874 14.775 12.7374 15C12.6124 15.0625 11.8749 15.425 10.3374 14.9375C9.03744 15.1625 7.22494 15.05 5.78744 14.3625C4.42494 14.35 2.81244 14.2375 2.68744 14.2375C2.54994 14.2375 2.28744 14.175 2.16244 13.825C2.03744 13.475 1.64994 10.8375 2.01244 9.24995C2.06244 9.02495 2.24994 8.89995 2.41244 8.88745C2.57494 8.87495 3.48744 8.77495 3.69994 8.74995C4.82494 8.61245 4.54994 7.63745 5.84994 6.08745C6.46244 5.34995 7.71244 4.83745 7.78744 3.19995C7.81244 2.64995 7.84994 1.74995 7.84994 1.62495C7.84994 0.837451 9.37494 0.687451 9.92494 1.77495C10.9124 3.71245 10.0999 4.66245 9.69994 6.09995Z" fill="white"/>
</mask>
<g mask="url(#mask1_490_1037)">
<path d="M3.9126 8.53729C4.0126 8.87479 4.4126 8.84979 4.6376 8.61229C5.1876 7.99979 5.6001 6.82479 6.1251 6.28729C6.9876 5.39979 7.9501 4.71229 7.9501 3.78729C7.9501 3.48729 8.0751 2.68729 7.6876 2.52479C7.4876 2.43729 7.3376 2.58729 7.3376 2.69979C7.3376 2.82479 7.2501 4.01229 7.2501 4.01229L3.9126 8.53729Z" fill="#B55E19"/>
<path d="M9.08755 0.887401C9.03755 1.0249 9.06255 1.1874 9.26255 1.3749C11.15 3.1249 9.17505 5.3124 9.20005 6.4499C9.21255 6.7624 9.20005 8.7749 9.17505 8.9874C8.97505 10.3499 8.17505 10.8374 7.72505 11.0999C7.66255 11.1374 7.67505 11.2749 7.77505 11.2499C7.86255 11.2249 8.77505 11.0499 9.26255 10.1249C9.30005 10.3999 9.58755 10.8999 9.82505 10.9999C9.57505 11.1124 8.88755 12.1374 10 13.0624C9.57505 13.2249 9.27505 14.0499 9.88755 14.5874C9.45005 14.7249 7.13755 14.7624 5.80005 13.8874C5.67505 13.7999 5.46255 13.8249 5.36255 13.9249C5.25005 14.0249 5.18755 14.0249 5.12505 14.0124C5.06255 13.9999 3.26255 14.0874 3.13755 14.0874C3.01255 14.0874 2.73755 14.1124 2.73755 14.2874C2.73755 14.4624 5.81255 14.4874 5.81255 14.4874L7.51255 15.2374L10.425 15.1249C10.425 15.1249 12.1625 15.2874 11.9375 15.2374C11.7125 15.1874 10.6125 14.9374 10.125 14.4249C9.56255 13.8124 10.05 13.4124 10.1875 13.3749C10.275 13.3499 10.375 13.3249 10.5125 13.3749C10.6625 13.4249 12.2625 13.8124 13.0375 13.4499C13.1375 13.3999 13.1 13.3374 13.0125 13.3374C11.7375 13.3999 10.65 13.1874 10.1375 12.7499C9.40005 12.1124 9.72505 11.4249 9.97505 11.2749C10.0625 11.2249 10.1625 11.2374 10.2125 11.2624C11.2125 11.6874 13.225 11.4499 13.8 11.0874C13.8625 11.0499 13.8375 10.9624 13.75 10.9874C13.5625 11.0374 10.975 11.4999 10.075 10.7624C9.45005 10.2499 9.33755 9.6874 9.75005 9.2499C9.87505 9.1124 10.1 9.1499 10.15 9.1624C11.8 9.4999 13.55 9.1624 13.8625 8.8374C13.9375 8.7624 13.9 8.6624 13.775 8.6999C13.3375 8.8374 11.5875 9.0749 10.8 8.9749C10.6 8.9499 10.4 8.9249 10.125 8.7374C9.97505 8.6374 9.80005 8.5124 9.67505 8.3874C9.55005 8.2624 9.43755 8.0249 9.48755 7.5874C9.51255 7.3374 9.65005 7.0874 10.0875 6.9999C10.3375 6.9499 10.7375 7.0374 10.85 7.0624C10.9625 7.0874 11.175 7.0874 11.3125 7.0499C11.5375 6.9874 12.2875 6.7874 12.7625 6.7499C12.9125 6.7374 12.9375 6.5624 12.75 6.5499C12.575 6.5374 11.9 6.5249 11.3875 6.6499C11.325 6.6624 11.2875 6.6249 11.325 6.5874C11.3625 6.5374 11.4625 6.4624 11.4875 6.4374C11.525 6.4124 11.5375 6.2874 11.35 6.3374C11.2375 6.3624 11.0375 6.4999 10.9375 6.6374C10.8875 6.7124 10.8 6.7249 10.75 6.7249C10.15 6.6874 9.77505 6.7499 9.57505 6.9624C9.56255 6.6499 9.61255 6.3124 9.67505 6.1374C9.71255 6.0249 10.7875 5.0124 10.7 3.2124C10.6125 1.3624 9.30005 0.349901 9.08755 0.887401Z" fill="#B55E19"/>
</g>
</svg>
