<svg width="12" height="12" viewBox="0 0 12 12" fill="none" xmlns="http://www.w3.org/2000/svg">
<g clip-path="url(#clip0_490_981)">
<path d="M11.0001 1C8.66675 0 6.00008 0 6.00008 0C6.00008 0 3.33341 0 1.00008 1C8.05259e-05 6 1.00008 10.3333 6.00008 12C11.0001 10.3333 12.0001 6 11.0001 1Z" fill="#CCD6DD"/>
<path d="M5.99992 11.2947C2.13725 9.90975 0.653585 6.61041 1.58659 1.48141C3.68759 0.676415 5.97592 0.666748 5.99992 0.666748C6.02358 0.666748 8.31925 0.680081 10.4133 1.48141C11.3463 6.61041 9.86259 9.90975 5.99992 11.2947Z" fill="#55ACEE"/>
<path d="M10.4133 1.48141C8.31933 0.680081 6.02367 0.666748 6 0.666748V11.2947C9.86267 9.90975 11.3463 6.61041 10.4133 1.48141Z" fill="#226699"/>
</g>
<defs>
<clipPath id="clip0_490_981">
<rect width="12" height="12" fill="white"/>
</clipPath>
</defs>
</svg>
