<svg width="16" height="16" viewBox="0 0 16 16" fill="none" xmlns="http://www.w3.org/2000/svg">
<path opacity="0.5" d="M12.6666 4H3.33325C2.80282 4 2.29411 4.21071 1.91904 4.58579C1.54397 4.96086 1.33325 5.46957 1.33325 6V7.81333L5.89125 9.33333H10.1086L14.6666 7.81333V6C14.6666 5.46957 14.4559 4.96086 14.0808 4.58579C13.7057 4.21071 13.197 4 12.6666 4Z" fill="#D97706"/>
<path d="M6.66658 4V3.33333H9.33325V4H10.6666V3.33333C10.6666 2.97971 10.5261 2.64057 10.2761 2.39052C10.026 2.14048 9.68687 2 9.33325 2H6.66658C6.31296 2 5.97382 2.14048 5.72378 2.39052C5.47373 2.64057 5.33325 2.97971 5.33325 3.33333V4H6.66658ZM5.89125 9.33333L1.33325 7.81333V12C1.33378 12.5303 1.54467 13.0387 1.91962 13.4136C2.29458 13.7886 2.80298 13.9995 3.33325 14H12.6666C13.1969 13.9995 13.7053 13.7886 14.0802 13.4136C14.4552 13.0387 14.6661 12.5303 14.6666 12V7.81333L10.1086 9.33333H5.89125Z" fill="#D97706"/>
</svg>
