<svg xmlns="http://www.w3.org/2000/svg" width="437" height="87" fill="none" xmlns:v="https://vecta.io/nano"><style><![CDATA[.B{fill-rule:evenodd}]]></style><path d="M27.42 10.968c3.029 0 5.484-2.455 5.484-5.484S30.448 0 27.42 0s-5.484 2.455-5.484 5.484 2.455 5.484 5.484 5.484z" fill="#ec1e26"/><path d="M54.841 51.007H0v10.626h54.841V51.007zM32.904 12.749H21.935v36.127h10.968V12.749z" fill="#28328c"/><path d="M15.51 12.749L0 48.876h15.51 4.233V12.749H15.51zm23.823 0l15.51 36.127h-15.51H35.1V12.749h4.233z" fill="#849daa"/><path d="M40.337 71.388h6.746v13.586h-6.691v-2.167c-.411.687-1.015 1.216-1.782 1.612s-1.59.582-2.495.582c-1.7 0-3.071-.661-4.195-2.009-1.097-1.348-1.645-3.04-1.645-5.128 0-1.348.247-2.564.768-3.674.521-1.084 1.234-1.956 2.139-2.59a5.18 5.18 0 0 1 3.044-.952c.878 0 1.7.185 2.413.582s1.289.925 1.7 1.665v-1.507zm-1.59 4.388c-.548 0-.987.185-1.344.582s-.521.872-.521 1.48c0 .581.165 1.057.521 1.401s.795.529 1.371.529c.548 0 1.014-.185 1.344-.555s.493-.846.493-1.454c0-.582-.164-1.057-.521-1.427s-.795-.555-1.344-.555zm9.378-4.382h6.718V84.98h-6.718V71.394zm-.002-4.284c0-.899.329-1.665.96-2.326.658-.634 1.426-.978 2.358-.978s1.755.317 2.413.978a3.13 3.13 0 0 1 .987 2.326 3.13 3.13 0 0 1-.987 2.326 3.33 3.33 0 0 1-2.413.952c-.932 0-1.727-.317-2.358-.952-.658-.634-.96-1.427-.96-2.326zM0 71.394h6.718V84.98H0V71.394zm7.756-.002h6.663v1.982c.658-1.559 2.029-2.696 4.195-2.696a3.27 3.27 0 0 1 .521.026v6.872a3.51 3.51 0 0 0-2.111-.687c-.823 0-1.453.238-1.865.687-.439.449-.631 1.216-.631 2.3v5.101H7.756V71.392zm14.812-7.585v9.013c-.494-.687-1.097-1.216-1.837-1.612-.192-.106-.384-.185-.576-.264v4.943c.247-.132.521-.212.823-.212.576 0 1.015.185 1.371.555.329.37.521.872.521 1.454 0 .608-.164 1.057-.521 1.427-.329.344-.795.529-1.371.529-.302 0-.576-.053-.823-.185l-.055-.053c-.137-.079-.274-.159-.384-.264l-1.179-.819c-.493-.344-.96-.502-1.508-.502-.795 0-1.042.264-1.124.344-.11.106-.356.502-.356 1.639v4.282c.823.555 1.782.819 2.824.819.905 0 1.782-.238 2.578-.687.823-.449 1.453-1.084 1.892-1.85v2.537h6.416V63.754h-6.691v.053zM0 67.112c0-.899.329-1.665.96-2.326.658-.634 1.426-.978 2.358-.978s1.755.317 2.413.978a3.13 3.13 0 0 1 .987 2.326 3.13 3.13 0 0 1-.987 2.326c-.658.634-1.453.951-2.413.951-.932 0-1.727-.317-2.358-.951A3.21 3.21 0 0 1 0 67.112z" fill="#28328c"/><g fill="#fff"><path d="M6.881 55.024v.431H5.863v3.45h-.157l-.368-.397v-1.182H4.129c-.065.556-.146.834-.244.834-.083 0-.269-.167-.559-.5s-.432-.556-.432-.667c0-.057.044-.085.131-.085h.579c.062-.139.109-.331.141-.573a1.53 1.53 0 0 1-.352.033c-.23 0-.464-.089-.703-.267s-.355-.365-.355-.561c0-.138.042-.254.127-.349s.196-.142.335-.142c.382 0 .709.154.981.461s.412.672.412 1.094c0 .111-.006.212-.017.303h1.165v-1.452H4.303l-.341-.431h2.919zm-3.13 1.158c0-.263-.054-.47-.161-.621s-.249-.227-.425-.227c-.105 0-.193.036-.264.109a.36.36 0 0 0-.104.258.46.46 0 0 0 .181.37c.123.099.282.149.479.149a1.28 1.28 0 0 0 .295-.036z"/><path d="M8.988 55.024v.431H7.973v3.45h-.124l-.402-.421v-3.029h-.747v-.431h2.287z"/><path d="M3.961 55.024l.341.431h1.034v1.452H4.172l.012-.129.005-.174c0-.422-.137-.787-.412-1.094s-.599-.461-.981-.461c-.138 0-.25.047-.335.142s-.127.211-.127.349c0 .196.118.383.355.561s.473.267.703.267l.209-.01c.053-.006.101-.014.143-.024l-.02.137c-.03.179-.07.324-.12.436h-.579c-.087 0-.131.028-.131.085 0 .111.144.334.432.667s.477.5.559.5c.098 0 .18-.278.244-.834h1.209v1.182l.368.397h.157v-3.45h1.585v3.029l.402.421h.124v-3.45h1.014v-.431H3.961zm4.151.56v3.45h-.325l-.478-.502v-2.949H6.002v3.45h-.359l-.444-.478v-1.101h-.946c-.029.224-.062.402-.1.53-.022.074-.047.139-.079.189-.028.044-.088.115-.189.115-.064 0-.12-.029-.158-.053a1.03 1.03 0 0 1-.14-.108c-.099-.089-.223-.219-.369-.387h0c-.146-.169-.258-.313-.335-.431-.038-.059-.069-.114-.091-.164s-.037-.101-.037-.153c0-.064.027-.128.092-.17.056-.036.122-.045.177-.045h.483a1.9 1.9 0 0 0 .073-.288l-.188.007c-.27 0-.534-.105-.789-.295h0c-.254-.191-.407-.411-.407-.662a.63.63 0 0 1 .159-.431.57.57 0 0 1 .441-.189c.428 0 .792.175 1.088.508a1.71 1.71 0 0 1 .444 1.177l-.005.174h.876v-1.194h-.966l-.547-.689h5.44v.689H8.112zm-4.503.494c-.012-.195-.06-.341-.135-.446-.085-.12-.185-.169-.309-.169-.065 0-.116.021-.162.066s-.068.103-.068.171c0 .11.042.197.133.272s.217.117.388.117a1.05 1.05 0 0 0 .153-.012zm.142.105a1.28 1.28 0 0 1-.295.036c-.196 0-.356-.05-.479-.149a.46.46 0 0 1-.181-.37.36.36 0 0 1 .104-.258c.071-.073.16-.109.264-.109.176 0 .318.076.425.227s.161.359.161.621z" class="B"/><path d="M17.933 55.259v.433h-1.037v3.471h-.072l-.464-.406v-.808c-.416.246-.767.369-1.054.369s-.574-.125-.849-.375-.409-.5-.409-.744.152-.454.457-.619.59-.25.856-.25a.99.99 0 0 1 .372.082c.134.053.343.19.628.412v-1.132H13.7v-.433h4.233zm-2.902 1.653l.812.775c.234-.11.38-.209.437-.299s.086-.21.082-.357c-.214-.185-.437-.278-.669-.278s-.448.053-.662.159zm.645.845l-.812-.781c-.328.148-.491.318-.491.509 0 .114.06.222.181.323s.259.149.416.149c.17 0 .406-.067.706-.201z"/><path d="M20.076 55.259v.433h-1.033v3.462h-.153l-.382-.39v-3.072h-.761v-.433h1.098c-.23-.457-.476-.801-.74-1.031s-.545-.345-.842-.345c-.248 0-.434.061-.559.183s-.188.305-.188.549c0 .205.051.42.154.644h-.409c-.186-.252-.28-.517-.28-.796a.9.9 0 0 1 .321-.714c.212-.185.481-.278.808-.278.505 0 .93.195 1.276.586.243.274.463.675.658 1.202h1.033z"/><path d="M16.669 55.259l-.054-.129a1.46 1.46 0 0 1-.1-.514c0-.244.063-.427.188-.549s.312-.183.559-.183c.298 0 .579.115.842.345.238.208.463.508.673.902l.067.129h-2.176zm1.954-.129c-.196-.356-.401-.623-.612-.807-.244-.212-.492-.31-.748-.31-.224 0-.369.055-.459.143s-.149.234-.149.46a1.37 1.37 0 0 0 .108.514h1.86zm-2.607 0h-2.454v.692h2.66v.732c-.177-.127-.323-.216-.434-.26-.146-.06-.289-.093-.427-.093-.297 0-.607.093-.926.268-.331.179-.526.422-.526.731 0 .292.163.571.45.836l.001.001c.292.266.608.412.946.412.27 0 .576-.095.915-.271v.637l.548.479h.265v-3.471h1.334v2.992l.459.47h.353v-3.462h1.033v-.692h-1.074c-.19-.492-.406-.88-.649-1.155a1.78 1.78 0 0 0-1.382-.633c-.358 0-.662.102-.903.312s-.365.484-.365.808c0 .232.059.455.174.667zm.157 0l.087.129H13.7v.433h2.66v1.132l-.139-.106c-.215-.16-.378-.262-.489-.306a.99.99 0 0 0-.372-.082c-.266 0-.551.083-.856.25s-.457.371-.457.619.136.492.409.744.558.375.849.375c.254 0 .559-.097.915-.29l.139-.079v.808l.464.406h.072v-3.471h1.611v3.072l.382.39h.153v-3.462h1.033v-.433h-1.033c-.196-.527-.415-.927-.658-1.202-.346-.391-.771-.586-1.276-.586-.327 0-.597.093-.808.278a.9.9 0 0 0-.321.714c0 .231.064.454.193.667zm-1.309 1.847c-.328.148-.491.318-.491.509 0 .114.06.222.181.323s.259.149.416.149c.144 0 .335-.048.572-.144l.134-.057-.812-.781zm.979.711c.234-.11.38-.209.437-.299s.086-.21.082-.357c-.214-.185-.437-.278-.669-.278a1.45 1.45 0 0 0-.529.1l-.133.059.812.775zm-.574-.733l.601.573a1.61 1.61 0 0 0 .176-.102c.066-.045.1-.08.115-.103v-.001a.45.45 0 0 0 .062-.232c-.18-.143-.356-.206-.53-.206-.144 0-.285.023-.424.071zm.17.76l-.602-.579c-.248.129-.325.25-.325.35 0 .066.034.142.135.227a.49.49 0 0 0 .324.117c.109 0 .263-.035.469-.114z" class="B"/><path d="M27.119 55.262v.434h-1.033v3.468h-.154l-.382-.391v-3.077h-.761v-.434h.877c-.277-.238-.416-.502-.416-.791 0-.342.198-.604.593-.785.314-.143.681-.214 1.102-.214.662 0 1.265.15 1.811.449s1.037.744 1.467 1.341h-.232c-.434-.458-.898-.801-1.392-1.03a3.66 3.66 0 0 0-1.566-.345c-.416 0-.728.062-.934.186s-.31.306-.31.55c0 .218.072.431.215.639h1.115z"/><path d="M31.165 55.262v.434h-1.037v3.468h-.143l-.392-.391v-1.014c-.389.24-.733.36-1.033.36-.277 0-.551-.122-.822-.367s-.402-.477-.402-.691a.57.57 0 0 1 .184-.4c.123-.126.305-.224.546-.293s.449-.107.617-.107c.302 0 .606.136.911.409v-.975h-2.66v-.434h4.233zm-1.572 1.769v-.153c-.196-.128-.391-.192-.587-.192-.268 0-.551.066-.849.199s-.447.278-.447.443c0 .13.05.239.15.327s.217.128.351.128c.155 0 .418-.098.791-.293s.57-.35.59-.458z"/><path d="M26.003 55.262c-.143-.208-.215-.421-.215-.639 0-.244.104-.428.31-.55s.518-.186.934-.186a3.66 3.66 0 0 1 1.566.345 4.47 4.47 0 0 1 1.265.9l.127.129h-3.987zm3.668-.129c-.361-.341-.739-.601-1.134-.784h0a3.51 3.51 0 0 0-1.504-.332c-.406 0-.686.061-.86.166h-.001a.47.47 0 0 0-.246.441.96.96 0 0 0 .154.509h3.59zm.551.129h.943v.434h-1.037v3.468h-.143l-.392-.391v-1.014l-.139.082c-.333.186-.631.279-.895.279-.277 0-.551-.122-.822-.367s-.402-.477-.402-.691a.57.57 0 0 1 .184-.4c.123-.126.305-.224.546-.293s.449-.107.617-.107c.256 0 .514.098.772.295l.139.115v-.975h-3.508v3.468h-.154l-.382-.391v-3.077h-.761v-.434h.877a1.6 1.6 0 0 1-.135-.129c-.188-.203-.281-.424-.281-.662 0-.342.198-.604.593-.785.314-.143.681-.214 1.102-.214.662 0 1.265.15 1.811.449.508.276.965.679 1.371 1.212l.096.129zm.073-.129h1.008v.693h-1.037v3.468h-.342l-.471-.469v-.834c-.319.168-.618.259-.895.259-.325 0-.631-.144-.918-.403l-.001-.001c-.279-.256-.444-.517-.444-.783 0-.179.079-.342.22-.487s.351-.256.607-.33c.25-.073.471-.113.659-.113.266 0 .523.091.772.261v-.567h-3.23v3.468h-.353l-.459-.47v-2.997h-.761v-.693h.703c-.159-.201-.243-.422-.243-.662 0-.196.057-.373.174-.527s.284-.276.497-.374h0c.336-.153.725-.227 1.162-.227.685 0 1.313.155 1.881.467.552.299 1.041.742 1.47 1.323zm-2.08 1.869c-.292.128-.367.244-.367.326 0 .095.035.169.106.232a.38.38 0 0 0 .257.094.84.84 0 0 0 .263-.064c.124-.046.277-.116.46-.212s.318-.18.407-.249a.61.61 0 0 0 .094-.086c.011-.014.017-.023.019-.028v-.066c-.156-.091-.305-.133-.448-.133-.244 0-.506.06-.79.186h-.001zm1.377-.123v.153c-.021.108-.217.261-.59.458s-.637.293-.791.293c-.134 0-.251-.043-.351-.128s-.15-.197-.15-.327c0-.165.149-.313.447-.443s.581-.199.849-.199c.196 0 .391.064.587.192z" class="B"/><path d="M38.106 55.262v.434h-.989v3.468h-.147l-.365-.391v-3.077h-.727v-.434h.838c-.265-.238-.398-.502-.398-.791 0-.342.189-.604.568-.785.3-.143.651-.214 1.054-.214a3.42 3.42 0 0 1 1.732.449c.524.297.992.744 1.403 1.341h-.222c-.415-.458-.859-.801-1.331-1.03s-.971-.345-1.497-.345c-.398 0-.696.062-.894.186s-.297.306-.297.55c0 .218.069.431.206.639h1.067z"/><path d="M41.977 55.262v.434h-.992v3.468h-.137l-.375-.391v-1.014c-.372.24-.701.36-.989.36-.265 0-.527-.122-.786-.367s-.385-.477-.385-.691c0-.14.059-.274.176-.4s.292-.224.522-.293.43-.107.59-.107c.289 0 .58.136.871.409v-.975h-2.545v-.434h4.049zm-1.504 1.769v-.153c-.187-.128-.374-.192-.561-.192-.257 0-.528.066-.812.199s-.427.278-.427.443c0 .13.048.239.144.327a.49.49 0 0 0 .336.128c.148 0 .4-.098.757-.293s.545-.35.564-.458z"/><path d="M37.039 55.262c-.137-.208-.206-.421-.206-.639 0-.244.099-.428.297-.55s.496-.186.894-.186c.526 0 1.025.115 1.497.345.426.206.83.506 1.21.9l.121.129h-3.814zm3.504-.129c-.345-.342-.707-.603-1.085-.785h0c-.452-.221-.93-.331-1.433-.331-.387 0-.652.061-.817.164l-.001.001c-.155.095-.235.236-.235.442 0 .17.048.34.147.509h3.425zm.531.129h.902v.434h-.992v3.468h-.137l-.375-.391v-1.014l-.139.085c-.316.184-.599.275-.85.275-.265 0-.527-.122-.786-.367s-.385-.477-.385-.691c0-.14.059-.274.176-.4s.292-.224.522-.293.43-.107.59-.107c.243 0 .488.097.733.29l.139.12v-.975h-3.355v3.468h-.147l-.365-.391v-3.077h-.727v-.434h.838a1.57 1.57 0 0 1-.129-.129c-.18-.203-.269-.424-.269-.662 0-.342.189-.604.568-.785.3-.143.651-.214 1.054-.214a3.42 3.42 0 0 1 1.732.449c.486.276.923.679 1.311 1.212l.092.129zm.075-.129h.965v.693h-.992v3.468h-.338l-.452-.471v-.827c-.301.165-.586.254-.85.254-.315 0-.61-.146-.885-.405v-.001c-.267-.256-.424-.518-.424-.781 0-.177.075-.34.21-.485s.338-.258.584-.331c.24-.074.452-.113.633-.113.253 0 .498.089.733.254v-.56h-3.078v3.468h-.349l-.441-.472v-2.996h-.728v-.693h.674c-.153-.201-.233-.422-.233-.662 0-.195.054-.371.166-.525s.273-.277.477-.375h0c.323-.154.697-.228 1.117-.228.658 0 1.26.156 1.805.468.528.3.996.742 1.406 1.322zM39.16 57c-.276.126-.35.242-.35.327a.3.3 0 0 0 .101.234c.071.063.148.092.24.092.046 0 .126-.017.247-.063a3.85 3.85 0 0 0 .439-.212c.175-.097.303-.18.388-.249a.59.59 0 0 0 .089-.086c.011-.014.017-.024.019-.029v-.069c-.148-.09-.289-.131-.422-.131-.231 0-.48.059-.751.185h-.001zm1.313-.122v.153c-.02.108-.208.261-.564.458s-.609.293-.757.293a.49.49 0 0 1-.336-.128c-.096-.088-.144-.197-.144-.327 0-.165.142-.313.427-.443s.556-.199.812-.199c.187 0 .374.064.561.192z" class="B"/><path d="M50.493 55.713h-.975v3.45h-.128l-.372-.403v-.9l-1.369.931-.317-.349 1.43-.916c-.395-.079-.716-.182-.962-.309s-.413-.257-.5-.388-.128-.307-.128-.521v-.594h-.481v-.431h3.803v.431zm-1.475 1.701v-1.701h-1.353v.546c0 .186.019.331.058.434s.114.209.221.318.264.2.465.279.404.118.609.124z"/><path d="M52.511 55.283v.431h-.972v3.45h-.119l-.385-.421v-3.029h-.715v-.431h2.19z"/><path d="M49.657 55.843v3.45h-.33l-.447-.485v-.694l-1.253.852-.5-.549 1.301-.833c-.27-.069-.502-.154-.695-.253-.254-.132-.445-.274-.551-.433l-.001-.002c-.102-.16-.148-.359-.148-.588v-.465h-.481v-.689h6.099v.689h-.972v3.45h-.321l-.459-.503v-2.947h-1.241zm1.38-.129v3.029l.385.421h.119v-3.45h.972v-.431H46.69v.431h.481v.594c0 .214.043.388.128.521s.254.261.5.388c.207.107.466.197.779.27l.183.04-1.43.916.317.349 1.369-.931v.9l.372.403h.128v-3.45h1.518zm-2.018 0v1.701l-.139-.01c-.158-.017-.315-.055-.471-.115-.201-.079-.356-.172-.465-.279s-.181-.215-.221-.318-.058-.248-.058-.434v-.546h1.353zm-1.215.129v.416c0 .179.019.307.05.39s.094.174.192.274c.092.09.228.174.417.248a1.73 1.73 0 0 0 .417.104v-1.432h-1.076z" class="B"/></g><g fill="#000"><path d="M73.721 47.73v10.605h-2.565V47.73h2.565zm7.081 2.145c.96 0 1.72.32 2.28.96.57.64.855 1.52.855 2.64v4.86h-2.565v-4.56c0-.56-.15-.995-.45-1.305-.29-.32-.68-.48-1.17-.48-.52 0-.935.165-1.245.495-.3.33-.45.8-.45 1.41v4.44h-2.565v-8.37h2.565v1.53c.24-.5.595-.895 1.065-1.185.48-.29 1.04-.435 1.68-.435zm7.872-.015c1.06 0 1.905.265 2.535.795.64.53 1.04 1.23 1.2 2.1h-2.4c-.07-.34-.23-.605-.48-.795-.24-.2-.545-.3-.915-.3-.29 0-.51.065-.66.195-.15.12-.225.295-.225.525 0 .26.135.455.405.585.28.13.715.26 1.305.39.64.15 1.165.305 1.575.465.41.15.765.4 1.065.75s.45.82.45 1.41c0 .48-.13.905-.39 1.275s-.635.66-1.125.87-1.07.315-1.74.315c-1.13 0-2.035-.25-2.715-.75s-1.095-1.215-1.245-2.145h2.475c.04.36.19.635.45.825.27.19.615.285 1.035.285.29 0 .51-.065.66-.195.15-.14.225-.32.225-.54 0-.29-.14-.495-.42-.615-.27-.13-.715-.265-1.335-.405-.62-.13-1.13-.27-1.53-.42s-.745-.39-1.035-.72c-.29-.34-.435-.8-.435-1.38 0-.75.285-1.355.855-1.815.57-.47 1.375-.705 2.415-.705zm13.601.105v8.37h-2.581V56.82c-.24.49-.6.88-1.08 1.17-.47.29-1.02.435-1.65.435-.96 0-1.725-.32-2.295-.96-.56-.64-.84-1.52-.84-2.64v-4.86h2.55v4.545c0 .57.145 1.015.435 1.335.3.31.7.465 1.2.465.52 0 .93-.165 1.23-.495s.45-.8.45-1.41v-4.44h2.581zm4.332 1.575c.32-.51.73-.915 1.23-1.215a3.2 3.2 0 0 1 1.65-.45v2.745h-.735c-.68 0-1.21.145-1.59.435-.37.29-.555.78-.555 1.47v3.81h-2.565v-8.37h2.565v1.575zm7.134-1.68c.64 0 1.19.145 1.65.435s.8.685 1.02 1.185v-1.515h2.55v8.37h-2.55V56.82c-.22.5-.56.895-1.02 1.185s-1.01.435-1.65.435c-.69 0-1.31-.17-1.86-.51-.54-.35-.97-.85-1.29-1.5-.31-.65-.465-1.41-.465-2.28 0-.88.155-1.64.465-2.28.32-.65.75-1.145 1.29-1.485a3.39 3.39 0 0 1 1.86-.525zm.825 2.25c-.55 0-.995.18-1.335.54-.33.36-.495.86-.495 1.5s.165 1.14.495 1.5c.34.36.785.54 1.335.54.54 0 .98-.185 1.32-.555.35-.37.525-.865.525-1.485 0-.63-.175-1.125-.525-1.485-.34-.37-.78-.555-1.32-.555zm11.471-2.235c.96 0 1.72.32 2.28.96.57.64.855 1.52.855 2.64v4.86h-2.565v-4.56c0-.56-.15-.995-.45-1.305-.29-.32-.68-.48-1.17-.48-.52 0-.935.165-1.245.495-.3.33-.45.8-.45 1.41v4.44h-2.565v-8.37h2.565v1.53c.24-.5.595-.895 1.065-1.185.48-.29 1.04-.435 1.68-.435zm8.607-.015c1.08 0 1.985.3 2.715.9.73.59 1.19 1.405 1.38 2.445h-2.715c-.08-.36-.245-.64-.495-.84s-.565-.3-.945-.3c-.45 0-.82.18-1.11.54-.29.35-.435.865-.435 1.545s.145 1.2.435 1.56c.29.35.66.525 1.11.525.38 0 .695-.1.945-.3s.415-.48.495-.84h2.715c-.19 1.04-.65 1.86-1.38 2.46-.73.59-1.635.885-2.715.885-.82 0-1.55-.17-2.19-.51a3.76 3.76 0 0 1-1.485-1.5c-.36-.65-.54-1.41-.54-2.28 0-.88.175-1.64.525-2.28.36-.65.86-1.145 1.5-1.485.64-.35 1.37-.525 2.19-.525zm13.383 4.065a3.54 3.54 0 0 1-.075.69h-5.805c.03.63.19 1.085.48 1.365.29.27.66.405 1.11.405.38 0 .695-.095.945-.285a1.33 1.33 0 0 0 .495-.735h2.715a3.6 3.6 0 0 1-.72 1.59c-.37.46-.84.825-1.41 1.095-.57.26-1.205.39-1.905.39-.82 0-1.55-.17-2.19-.51a3.76 3.76 0 0 1-1.485-1.5c-.36-.65-.54-1.41-.54-2.28 0-.88.175-1.64.525-2.28.36-.65.86-1.145 1.5-1.485.64-.35 1.37-.525 2.19-.525.83 0 1.56.17 2.19.51a3.54 3.54 0 0 1 1.455 1.44c.35.61.525 1.315.525 2.115zm-2.595-.39c.01-.55-.14-.96-.45-1.23-.3-.28-.675-.42-1.125-.42-.47 0-.86.14-1.17.42s-.485.69-.525 1.23h3.27zm12.38 4.8l-2.295-4.005h-.585v4.005h-2.565V47.73h4.38c.84 0 1.55.145 2.13.435s1.015.69 1.305 1.2c.29.5.435 1.075.435 1.725 0 .77-.215 1.425-.645 1.965-.42.54-1.035.91-1.845 1.11l2.52 4.17h-2.835zm-2.88-5.76h1.59c.51 0 .885-.11 1.125-.33.24-.23.36-.565.36-1.005 0-.42-.125-.75-.375-.99-.24-.24-.61-.36-1.11-.36h-1.59v2.685zm14.922 1.35a3.54 3.54 0 0 1-.075.69h-5.805c.03.63.19 1.085.48 1.365.29.27.66.405 1.11.405.38 0 .695-.095.945-.285a1.33 1.33 0 0 0 .495-.735h2.715a3.6 3.6 0 0 1-.72 1.59c-.37.46-.84.825-1.41 1.095-.57.26-1.205.39-1.905.39-.82 0-1.55-.17-2.19-.51a3.76 3.76 0 0 1-1.485-1.5c-.36-.65-.54-1.41-.54-2.28 0-.88.175-1.64.525-2.28.36-.65.86-1.145 1.5-1.485.64-.35 1.37-.525 2.19-.525.83 0 1.56.17 2.19.51a3.54 3.54 0 0 1 1.455 1.44c.35.61.525 1.315.525 2.115zm-2.595-.39c.01-.55-.14-.96-.45-1.23-.3-.28-.675-.42-1.125-.42-.47 0-.86.14-1.17.42s-.485.69-.525 1.23h3.27zm7.112-3.675c.64 0 1.19.145 1.65.435s.8.685 1.02 1.185v-1.515h2.55v8.325c0 .78-.15 1.48-.45 2.1a3.44 3.44 0 0 1-1.38 1.5c-.62.37-1.39.555-2.31.555-1.26 0-2.27-.3-3.03-.9-.75-.59-1.2-1.395-1.35-2.415h2.535a1.28 1.28 0 0 0 .54.795c.29.19.665.285 1.125.285.53 0 .955-.155 1.275-.465.33-.3.495-.785.495-1.455v-1.47c-.22.5-.56.895-1.02 1.185s-1.01.435-1.65.435c-.69 0-1.31-.17-1.86-.51-.54-.35-.97-.85-1.29-1.5-.31-.65-.465-1.41-.465-2.28 0-.88.155-1.64.465-2.28.32-.65.75-1.145 1.29-1.485a3.39 3.39 0 0 1 1.86-.525zm.825 2.25c-.55 0-.995.18-1.335.54-.33.36-.495.86-.495 1.5s.165 1.14.495 1.5c.34.36.785.54 1.335.54.54 0 .98-.185 1.32-.555.35-.37.525-.865.525-1.485 0-.63-.175-1.125-.525-1.485-.34-.37-.78-.555-1.32-.555zm14.486-2.145v8.37h-2.58V56.82c-.24.49-.6.88-1.08 1.17-.47.29-1.02.435-1.65.435-.96 0-1.725-.32-2.295-.96-.56-.64-.84-1.52-.84-2.64v-4.86h2.55v4.545c0 .57.145 1.015.435 1.335.3.31.7.465 1.2.465.52 0 .93-.165 1.23-.495s.45-.8.45-1.41v-4.44h2.58zm4.333-2.73v11.1h-2.565v-11.1h2.565zm4.95 2.625c.64 0 1.19.145 1.65.435s.8.685 1.02 1.185v-1.515h2.55v8.37h-2.55V56.82c-.22.5-.56.895-1.02 1.185s-1.01.435-1.65.435c-.69 0-1.31-.17-1.86-.51-.54-.35-.97-.85-1.29-1.5-.31-.65-.465-1.41-.465-2.28 0-.88.155-1.64.465-2.28.32-.65.75-1.145 1.29-1.485a3.39 3.39 0 0 1 1.86-.525zm.825 2.25c-.55 0-.995.18-1.335.54-.33.36-.495.86-.495 1.5s.165 1.14.495 1.5c.34.36.785.54 1.335.54.54 0 .98-.185 1.32-.555.35-.37.525-.865.525-1.485 0-.63-.175-1.125-.525-1.485-.34-.37-.78-.555-1.32-.555zm10.901 4.02v2.205h-1.155c-.98 0-1.745-.24-2.295-.72-.54-.49-.81-1.295-.81-2.415v-3.075h-1.125v-2.16h1.125V47.91h2.565v2.055h1.68v2.16h-1.68v3.12c0 .33.065.56.195.69.14.13.37.195.69.195h.81zm5.357-6.27c.83 0 1.57.175 2.22.525.66.34 1.175.835 1.545 1.485.38.65.57 1.41.57 2.28s-.19 1.63-.57 2.28a3.78 3.78 0 0 1-1.545 1.5c-.65.34-1.39.51-2.22.51s-1.575-.17-2.235-.51a3.88 3.88 0 0 1-1.56-1.5c-.37-.65-.555-1.41-.555-2.28s.185-1.63.555-2.28a3.78 3.78 0 0 1 1.56-1.485c.66-.35 1.405-.525 2.235-.525zm0 2.22c-.49 0-.905.18-1.245.54-.33.35-.495.86-.495 1.53s.165 1.18.495 1.53a1.67 1.67 0 0 0 1.245.525 1.62 1.62 0 0 0 1.23-.525c.33-.35.495-.86.495-1.53s-.165-1.18-.495-1.53a1.6 1.6 0 0 0-1.23-.54zm8.23-.54c.32-.51.73-.915 1.23-1.215a3.2 3.2 0 0 1 1.65-.45v2.745h-.735c-.68 0-1.21.145-1.59.435-.37.29-.555.78-.555 1.47v3.81h-2.565v-8.37h2.565v1.575zm5.889-1.575l2.01 5.13 1.875-5.13h2.835l-5.22 12.36h-2.82l1.965-4.305-3.51-8.055h2.865zm13.755-.105c.64 0 1.19.145 1.65.435s.8.685 1.02 1.185v-1.515h2.55v8.37h-2.55V56.82c-.22.5-.56.895-1.02 1.185s-1.01.435-1.65.435c-.69 0-1.31-.17-1.86-.51-.54-.35-.97-.85-1.29-1.5-.31-.65-.465-1.41-.465-2.28 0-.88.155-1.64.465-2.28.32-.65.75-1.145 1.29-1.485a3.39 3.39 0 0 1 1.86-.525zm.825 2.25c-.55 0-.995.18-1.335.54-.33.36-.495.86-.495 1.5s.165 1.14.495 1.5c.34.36.785.54 1.335.54.54 0 .98-.185 1.32-.555.35-.37.525-.865.525-1.485 0-.63-.175-1.125-.525-1.485-.34-.37-.78-.555-1.32-.555zm11.471-2.235c.96 0 1.72.32 2.28.96.57.64.855 1.52.855 2.64v4.86h-2.565v-4.56c0-.56-.15-.995-.45-1.305-.29-.32-.68-.48-1.17-.48-.52 0-.935.165-1.245.495-.3.33-.45.8-.45 1.41v4.44h-2.565v-8.37h2.565v1.53c.24-.5.595-.895 1.065-1.185.48-.29 1.04-.435 1.68-.435zm8.006-.015c.64 0 1.19.145 1.65.435s.795.685 1.005 1.185v-4.245h2.565v11.1h-2.565V56.82c-.21.5-.545.895-1.005 1.185s-1.01.435-1.65.435c-.69 0-1.31-.17-1.86-.51-.54-.35-.97-.85-1.29-1.5-.31-.65-.465-1.41-.465-2.28 0-.88.155-1.64.465-2.28.32-.65.75-1.145 1.29-1.485a3.39 3.39 0 0 1 1.86-.525zm.825 2.25c-.55 0-.995.18-1.335.54-.33.36-.495.86-.495 1.5s.165 1.14.495 1.5c.34.36.785.54 1.335.54.54 0 .98-.185 1.32-.555.35-.37.525-.865.525-1.485 0-.63-.175-1.125-.525-1.485-.34-.37-.78-.555-1.32-.555zm18.704.9c0 1.04-.225 1.965-.675 2.775-.44.8-1.08 1.425-1.92 1.875-.83.45-1.81.675-2.94.675h-4.005V47.73h4.005c1.14 0 2.125.22 2.955.66s1.465 1.06 1.905 1.86c.45.8.675 1.72.675 2.76zm-5.76 3.03c1 0 1.775-.265 2.325-.795.56-.53.84-1.275.84-2.235s-.28-1.705-.84-2.235c-.55-.53-1.325-.795-2.325-.795h-1.215v6.06h1.215zm15.171-2.115a3.54 3.54 0 0 1-.075.69h-5.805c.03.63.19 1.085.48 1.365.29.27.66.405 1.11.405.38 0 .695-.095.945-.285a1.33 1.33 0 0 0 .495-.735h2.715a3.6 3.6 0 0 1-.72 1.59c-.37.46-.84.825-1.41 1.095-.57.26-1.205.39-1.905.39-.82 0-1.55-.17-2.19-.51a3.76 3.76 0 0 1-1.485-1.5c-.36-.65-.54-1.41-.54-2.28 0-.88.175-1.64.525-2.28.36-.65.86-1.145 1.5-1.485.64-.35 1.37-.525 2.19-.525.83 0 1.56.17 2.19.51a3.54 3.54 0 0 1 1.455 1.44c.35.61.525 1.315.525 2.115zm-2.595-.39c.01-.55-.14-.96-.45-1.23-.3-.28-.675-.42-1.125-.42-.47 0-.86.14-1.17.42s-.485.69-.525 1.23h3.27zm7.802 2.295l1.815-5.865h2.73l-2.97 8.37h-3.18l-2.97-8.37h2.73l1.845 5.865zm13.558-1.905a3.54 3.54 0 0 1-.075.69h-5.805c.03.63.19 1.085.48 1.365.29.27.66.405 1.11.405.38 0 .695-.095.945-.285a1.33 1.33 0 0 0 .495-.735h2.715a3.6 3.6 0 0 1-.72 1.59c-.37.46-.84.825-1.41 1.095-.57.26-1.205.39-1.905.39-.82 0-1.55-.17-2.19-.51a3.76 3.76 0 0 1-1.485-1.5c-.36-.65-.54-1.41-.54-2.28 0-.88.175-1.64.525-2.28.36-.65.86-1.145 1.5-1.485.64-.35 1.37-.525 2.19-.525.83 0 1.56.17 2.19.51a3.54 3.54 0 0 1 1.455 1.44c.35.61.525 1.315.525 2.115zm-2.595-.39c.01-.55-.14-.96-.45-1.23-.3-.28-.675-.42-1.125-.42-.47 0-.86.14-1.17.42s-.485.69-.525 1.23h3.27zm6.497-6.3v11.1h-2.565v-11.1h2.565zm5.686 2.625c.83 0 1.57.175 2.22.525.66.34 1.175.835 1.545 1.485.38.65.57 1.41.57 2.28s-.19 1.63-.57 2.28a3.78 3.78 0 0 1-1.545 1.5c-.65.34-1.39.51-2.22.51s-1.575-.17-2.235-.51a3.88 3.88 0 0 1-1.56-1.5c-.37-.65-.555-1.41-.555-2.28s.185-1.63.555-2.28a3.78 3.78 0 0 1 1.56-1.485c.66-.35 1.405-.525 2.235-.525zm0 2.22c-.49 0-.905.18-1.245.54-.33.35-.495.86-.495 1.53s.165 1.18.495 1.53a1.67 1.67 0 0 0 1.245.525 1.62 1.62 0 0 0 1.23-.525c.33-.35.495-.86.495-1.53s-.165-1.18-.495-1.53a1.6 1.6 0 0 0-1.23-.54zm10.885-2.22c.69 0 1.305.175 1.845.525.55.34.98.835 1.29 1.485.32.64.48 1.4.48 2.28 0 .87-.16 1.63-.48 2.28-.31.65-.74 1.15-1.29 1.5-.54.34-1.155.51-1.845.51-.64 0-1.19-.145-1.65-.435s-.795-.685-1.005-1.185v5.505h-2.565v-12.36h2.565v1.515c.21-.5.545-.895 1.005-1.185s1.01-.435 1.65-.435zm-.825 2.25c-.54 0-.985.185-1.335.555-.34.36-.51.855-.51 1.485 0 .62.17 1.115.51 1.485.35.37.795.555 1.335.555.55 0 .99-.18 1.32-.54.34-.36.51-.86.51-1.5s-.17-1.14-.51-1.5c-.33-.36-.77-.54-1.32-.54zm16.616-2.235c1.03 0 1.84.32 2.43.96.59.63.885 1.51.885 2.64v4.86h-2.55v-4.56c0-.53-.145-.94-.435-1.23-.28-.3-.665-.45-1.155-.45-.51 0-.915.16-1.215.48-.29.31-.435.75-.435 1.32v4.44h-2.565v-4.56c0-.53-.14-.94-.42-1.23-.28-.3-.665-.45-1.155-.45-.51 0-.915.155-1.215.465s-.45.755-.45 1.335v4.44h-2.565v-8.37h2.565v1.425a2.51 2.51 0 0 1 1.005-1.11c.46-.27.995-.405 1.605-.405.64 0 1.205.15 1.695.45.49.29.86.71 1.11 1.26a3.37 3.37 0 0 1 1.185-1.245c.51-.31 1.07-.465 1.68-.465zm12.969 4.05a3.54 3.54 0 0 1-.075.69h-5.805c.03.63.19 1.085.48 1.365.29.27.66.405 1.11.405.38 0 .695-.095.945-.285a1.33 1.33 0 0 0 .495-.735h2.715a3.6 3.6 0 0 1-.72 1.59c-.37.46-.84.825-1.41 1.095-.57.26-1.205.39-1.905.39-.82 0-1.55-.17-2.19-.51a3.76 3.76 0 0 1-1.485-1.5c-.36-.65-.54-1.41-.54-2.28 0-.88.175-1.64.525-2.28.36-.65.86-1.145 1.5-1.485.64-.35 1.37-.525 2.19-.525.83 0 1.56.17 2.19.51a3.54 3.54 0 0 1 1.455 1.44c.35.61.525 1.315.525 2.115zm-2.595-.39c.01-.55-.14-.96-.45-1.23-.3-.28-.675-.42-1.125-.42-.47 0-.86.14-1.17.42s-.485.69-.525 1.23h3.27zm9.242-3.66c.96 0 1.72.32 2.28.96.57.64.855 1.52.855 2.64v4.86h-2.565v-4.56c0-.56-.15-.995-.45-1.305-.29-.32-.68-.48-1.17-.48-.52 0-.935.165-1.245.495-.3.33-.45.8-.45 1.41v4.44h-2.565v-8.37h2.565v1.53c.24-.5.595-.895 1.065-1.185.48-.29 1.04-.435 1.68-.435zm9.567 6.255v2.205h-1.155c-.98 0-1.745-.24-2.295-.72-.54-.49-.81-1.295-.81-2.415v-3.075h-1.125v-2.16h1.125V47.91h2.565v2.055h1.68v2.16h-1.68v3.12c0 .33.065.56.195.69.14.13.37.195.69.195h.81zM77.726 78.4h-3.975l-.66 1.935h-2.7l3.885-10.53h2.955l3.885 10.53h-2.73l-.66-1.935zm-.66-1.95l-1.32-3.9-1.335 3.9h2.655zm13.372-4.485v8.37h-2.58V78.82c-.24.49-.6.88-1.08 1.17-.47.29-1.02.435-1.65.435-.96 0-1.725-.32-2.295-.96-.56-.64-.84-1.52-.84-2.64v-4.86h2.55v4.545c0 .57.145 1.015.435 1.335.3.31.7.465 1.2.465.52 0 .93-.165 1.23-.495s.45-.8.45-1.41v-4.44h2.58zm6.508 6.165v2.205H95.79c-.98 0-1.745-.24-2.295-.72-.54-.49-.81-1.295-.81-2.415v-3.075H91.56v-2.16h1.125V69.91h2.565v2.055h1.68v2.16h-1.68v3.12c0 .33.065.56.195.69.14.13.37.195.69.195h.81zm6.752-6.255c.96 0 1.72.32 2.28.96.57.64.855 1.52.855 2.64v4.86h-2.565v-4.56c0-.56-.15-.995-.45-1.305-.29-.32-.68-.48-1.17-.48-.52 0-.935.165-1.245.495-.3.33-.45.8-.45 1.41v4.44h-2.565v-11.1h2.565v4.26c.24-.5.595-.895 1.065-1.185.48-.29 1.04-.435 1.68-.435zm8.742-.015c.83 0 1.57.175 2.22.525.66.34 1.175.835 1.545 1.485.38.65.57 1.41.57 2.28s-.19 1.63-.57 2.28a3.78 3.78 0 0 1-1.545 1.5c-.65.34-1.39.51-2.22.51s-1.575-.17-2.235-.51a3.88 3.88 0 0 1-1.56-1.5c-.37-.65-.555-1.41-.555-2.28s.185-1.63.555-2.28a3.78 3.78 0 0 1 1.56-1.485c.66-.35 1.405-.525 2.235-.525zm0 2.22c-.49 0-.905.18-1.245.54-.33.35-.495.86-.495 1.53s.165 1.18.495 1.53a1.67 1.67 0 0 0 1.245.525 1.62 1.62 0 0 0 1.23-.525c.33-.35.495-.86.495-1.53s-.165-1.18-.495-1.53a1.6 1.6 0 0 0-1.23-.54zm8.23-.54c.32-.51.73-.915 1.23-1.215a3.2 3.2 0 0 1 1.65-.45v2.745h-.735c-.68 0-1.21.145-1.59.435-.37.29-.555.78-.555 1.47v3.81h-2.565v-8.37h2.565v1.575zm3.713-3.93c0-.39.14-.71.42-.96.28-.26.65-.39 1.11-.39s.83.13 1.11.39c.28.25.42.57.42.96 0 .38-.14.7-.42.96-.28.25-.65.375-1.11.375s-.83-.125-1.11-.375c-.28-.26-.42-.58-.42-.96zm2.805 2.355v8.37h-2.565v-8.37h2.565zm6.511 6.165v2.205h-1.155c-.98 0-1.745-.24-2.295-.72-.54-.49-.81-1.295-.81-2.415v-3.075h-1.125v-2.16h1.125V69.91h2.565v2.055h1.68v2.16h-1.68v3.12c0 .33.065.56.195.69.14.13.37.195.69.195h.81zm3.377-6.165l2.01 5.13 1.875-5.13h2.835l-5.22 12.36h-2.82l1.965-4.305-3.51-8.055h2.865zm14.49-.105c.83 0 1.57.175 2.22.525.66.34 1.175.835 1.545 1.485.38.65.57 1.41.57 2.28s-.19 1.63-.57 2.28a3.78 3.78 0 0 1-1.545 1.5c-.65.34-1.39.51-2.22.51s-1.575-.17-2.235-.51a3.88 3.88 0 0 1-1.56-1.5c-.37-.65-.555-1.41-.555-2.28s.185-1.63.555-2.28a3.78 3.78 0 0 1 1.56-1.485c.66-.35 1.405-.525 2.235-.525zm0 2.22c-.49 0-.905.18-1.245.54-.33.35-.495.86-.495 1.53s.165 1.18.495 1.53a1.67 1.67 0 0 0 1.245.525 1.62 1.62 0 0 0 1.23-.525c.33-.35.495-.86.495-1.53s-.165-1.18-.495-1.53a1.6 1.6 0 0 0-1.23-.54zm9.775-3.255c-.42 0-.725.09-.915.27s-.295.47-.315.87h1.515v2.16h-1.515v6.21h-2.565v-6.21h-1.005v-2.16h1.005v-.09c0-1.04.3-1.84.9-2.4.61-.57 1.49-.855 2.64-.855l.54.015v2.205l-.285-.015zm6.98-1.095v10.605h-2.565V69.73h2.565zm7.081 2.145c.96 0 1.72.32 2.28.96.57.64.855 1.52.855 2.64v4.86h-2.565v-4.56c0-.56-.15-.995-.45-1.305-.29-.32-.68-.48-1.17-.48-.52 0-.935.165-1.245.495-.3.33-.45.8-.45 1.41v4.44h-2.565v-8.37h2.565v1.53c.24-.5.595-.895 1.065-1.185.48-.29 1.04-.435 1.68-.435zm8.007-.015c.64 0 1.19.145 1.65.435s.795.685 1.005 1.185v-4.245h2.565v11.1h-2.565V78.82c-.21.5-.545.895-1.005 1.185s-1.01.435-1.65.435c-.69 0-1.31-.17-1.86-.51-.54-.35-.97-.85-1.29-1.5-.31-.65-.465-1.41-.465-2.28 0-.88.155-1.64.465-2.28.32-.65.75-1.145 1.29-1.485a3.39 3.39 0 0 1 1.86-.525zm.825 2.25c-.55 0-.995.18-1.335.54-.33.36-.495.86-.495 1.5s.165 1.14.495 1.5c.34.36.785.54 1.335.54.54 0 .98-.185 1.32-.555.35-.37.525-.865.525-1.485 0-.63-.175-1.125-.525-1.485-.34-.37-.78-.555-1.32-.555zm5.921-4.5c0-.39.14-.71.42-.96.28-.26.65-.39 1.11-.39s.83.13 1.11.39c.28.25.42.57.42.96 0 .38-.14.7-.42.96-.28.25-.65.375-1.11.375s-.83-.125-1.11-.375c-.28-.26-.42-.58-.42-.96zm2.805 2.355v8.37h-2.565v-8.37h2.565zm4.951-.105c.64 0 1.19.145 1.65.435s.8.685 1.02 1.185v-1.515h2.55v8.37h-2.55V78.82c-.22.5-.56.895-1.02 1.185s-1.01.435-1.65.435c-.69 0-1.31-.17-1.86-.51-.54-.35-.97-.85-1.29-1.5-.31-.65-.465-1.41-.465-2.28 0-.88.155-1.64.465-2.28.32-.65.75-1.145 1.29-1.485a3.39 3.39 0 0 1 1.86-.525zm.825 2.25c-.55 0-.995.18-1.335.54-.33.36-.495.86-.495 1.5s.165 1.14.495 1.5c.34.36.785.54 1.335.54.54 0 .98-.185 1.32-.555.35-.37.525-.865.525-1.485 0-.63-.175-1.125-.525-1.485-.34-.37-.78-.555-1.32-.555z" fill-opacity=".82"/><path d="M83.05 19.9v1.965h-1.485V31H79.21v-5.04h-1.845v.705c0 1.07-.28 1.91-.84 2.52-.55.6-1.35.9-2.4.9-.65 0-1.225-.125-1.725-.375s-.89-.605-1.17-1.065c-.27-.46-.405-.995-.405-1.605 0-.98.32-1.725.96-2.235.64-.52 1.45-.78 2.43-.78h.945V22.9c0-.75-.275-1.125-.825-1.125a.74.74 0 0 0-.6.27c-.14.17-.21.4-.21.69a2.77 2.77 0 0 0 .045.48h-2.355c-.04-.22-.06-.41-.06-.57 0-.85.265-1.54.795-2.07.54-.54 1.305-.81 2.295-.81 1.1 0 1.895.325 2.385.975.49.64.735 1.505.735 2.595v.69h1.845V19.9h3.84zm-7.89 6.06h-.87c-.38 0-.69.095-.93.285-.23.18-.345.44-.345.78 0 .33.1.59.3.78s.455.285.765.285c.36 0 .63-.115.81-.345.18-.24.27-.56.27-.96v-.825zm8.843-4.095h-1.47V19.9h5.295v1.965h-1.455V31h-2.37v-9.135zm6.845 4.635V28c0 .34.075.615.225.825.16.2.39.3.69.3.28 0 .5-.095.66-.285.16-.2.24-.46.24-.78v-.42h2.265v.33c0 .97-.275 1.74-.825 2.31s-1.315.855-2.295.855c-.7 0-1.3-.14-1.8-.42a2.84 2.84 0 0 1-1.11-1.17c-.25-.49-.375-1.045-.375-1.665v-3.27h1.515c.77 0 1.315-.165 1.635-.495.33-.34.495-.83.495-1.47v-.78h-4.845V19.9h8.475v1.965h-1.275v.78c0 1.2-.28 2.145-.84 2.835-.55.68-1.47 1.02-2.76 1.02h-.075zm15.574-4.635h-1.47V31h-2.355v-5.355h-1.875c-.61 0-1.095.15-1.455.45s-.54.725-.54 1.275.16.98.48 1.29.79.465 1.41.465h.27v1.86h-.645c-1.15 0-2.09-.305-2.82-.915-.72-.61-1.08-1.53-1.08-2.76s.395-2.15 1.185-2.76c.8-.62 1.825-.93 3.075-.93h1.995v-1.755h-7.305V19.9h11.13v1.965zm4.785-1.965v1.965h-1.455V31h-2.37v-9.135h-1.47V19.9h1.545v-.57c0-1.21-.42-1.815-1.26-1.815-.88 0-1.32.605-1.32 1.815v1.08h-2.295v-.96c0-1.21.29-2.165.87-2.865.57-.7 1.485-1.05 2.745-1.05s2.165.355 2.715 1.065c.56.7.84 1.65.84 2.85v.45h1.455zm11.36 1.965h-1.47V31h-2.37v-2.34c-.32.35-.725.625-1.215.825-.48.19-1.035.285-1.665.285-1.29 0-2.29-.38-3-1.14s-1.065-1.79-1.065-3.09a9.91 9.91 0 0 1 .06-.9h.165c.81 0 1.38-.175 1.71-.525.33-.36.495-.885.495-1.575v-.675h-3.51V19.9h11.865v1.965zm-3.84 0h-2.19v1.11c0 .81-.195 1.47-.585 1.98-.38.5-.99.795-1.83.885.02.59.225 1.065.615 1.425s.93.54 1.62.54c.73 0 1.305-.22 1.725-.66.43-.45.645-1.03.645-1.74v-3.54zm17.161-1.965v1.965h-1.47V31h-2.265v-1.905c-.24.32-.57.57-.99.75s-.89.27-1.41.27c-.69 0-1.315-.155-1.875-.465a3.41 3.41 0 0 1-1.305-1.305c-.31-.56-.465-1.195-.465-1.905 0-.69.155-1.305.465-1.845a3.36 3.36 0 0 1 1.305-1.26c.56-.3 1.185-.45 1.875-.45.5 0 .95.08 1.35.24.41.16.76.385 1.05.675v-1.935h-7.096V19.9h10.831zm-5.64 4.485c-.51 0-.945.14-1.305.42l3.18 2.43c.11-.27.165-.54.165-.81 0-.56-.185-1.04-.555-1.44s-.865-.6-1.485-.6zm-2.085 2.055c0 .6.2 1.085.6 1.455.41.36.905.54 1.485.54.5 0 .93-.14 1.29-.42l-3.21-2.415c-.11.27-.165.55-.165.84zm12.517-6.54v1.965h-1.455V31h-2.37v-9.135h-1.47V19.9h1.545v-.57c0-1.21-.42-1.815-1.26-1.815-.88 0-1.32.605-1.32 1.815v1.08h-2.295v-.96c0-1.21.29-2.165.87-2.865.57-.7 1.485-1.05 2.745-1.05s2.165.355 2.715 1.065c.56.7.84 1.65.84 2.85v.45h1.455zm12.65 1.965h-1.47V31h-2.37v-5.04h-1.935v.705c0 1.07-.28 1.91-.84 2.52-.55.6-1.35.9-2.4.9-.65 0-1.225-.125-1.725-.375a2.71 2.71 0 0 1-1.155-1.065c-.27-.46-.405-.995-.405-1.605 0-.98.315-1.725.945-2.235.64-.52 1.45-.78 2.43-.78h.96v-2.16h-5.19V19.9h13.155v1.965zm-3.84 0h-1.935v2.16h1.935v-2.16zm-4.125 4.095h-.885c-.38 0-.685.095-.915.285-.23.18-.345.44-.345.78s.095.605.285.795c.2.18.455.27.765.27.36 0 .63-.115.81-.345.19-.24.285-.56.285-.96v-.825zm8.921-4.095h-1.47V19.9h5.295v1.965h-1.455V31h-2.37v-9.135zm13.883-6.36c1.32 0 2.44.195 3.36.585s1.61.94 2.07 1.65c.47.7.705 1.52.705 2.46v.27h-2.31v-.21c0-.94-.345-1.645-1.035-2.115-.68-.48-1.615-.72-2.805-.72-1.14 0-2.035.205-2.685.615-.64.4-.99 1.02-1.05 1.86h1.485v1.965h-1.455V31h-2.37v-9.135h-1.47V19.9h1.47c.06-1.38.61-2.455 1.65-3.225 1.04-.78 2.52-1.17 4.44-1.17zm7.745 4.395v1.965h-1.47V31h-2.295v-2.01c-.26.35-.59.62-.99.81-.39.18-.84.27-1.35.27-.69 0-1.29-.155-1.8-.465-.5-.31-.885-.74-1.155-1.29s-.405-1.17-.405-1.86c0-.67.135-1.265.405-1.785a2.99 2.99 0 0 1 1.17-1.245c.51-.3 1.105-.45 1.785-.45.5 0 .95.09 1.35.27s.73.44.99.78v-2.16h-6.75V19.9h10.515zm-5.46 8.28c.53 0 .945-.165 1.245-.495a1.68 1.68 0 0 0 .45-1.17c0-.46-.15-.85-.45-1.17s-.715-.48-1.245-.48c-.5 0-.91.155-1.23.465-.31.3-.465.695-.465 1.185s.155.89.465 1.2c.32.31.73.465 1.23.465zm13.74-12.72c2.54 0 4.415.425 5.625 1.275 1.22.85 1.83 2.03 1.83 3.54v.24h-2.31v-.18c0-1.01-.425-1.755-1.275-2.235-.84-.48-2.145-.72-3.915-.72-1.66 0-2.88.205-3.66.615a2.18 2.18 0 0 0-1.26 1.905h1.47v1.965h-1.455V31h-2.37v-9.135h-1.47V19.9h1.47c.14-2.96 2.58-4.44 7.32-4.44zm8.855 6.405h-1.47V31h-2.355v-5.49h-1.92c.27.46.405.98.405 1.56 0 .61-.14 1.135-.42 1.575a2.61 2.61 0 0 1-1.14.99 3.77 3.77 0 0 1-1.59.33c-.6 0-1.16-.125-1.68-.375-.51-.26-.92-.63-1.23-1.11-.3-.49-.45-1.06-.45-1.71 0-.69.155-1.275.465-1.755a2.93 2.93 0 0 1 1.29-1.095c.54-.24 1.14-.36 1.8-.36h4.47v-1.695h-9.03V19.9h12.855v1.965zm-8.46 6.105c.37 0 .67-.11.9-.33.23-.23.345-.53.345-.9 0-.35-.115-.64-.345-.87s-.53-.345-.9-.345-.675.115-.915.345-.36.525-.36.885.115.655.345.885c.24.22.55.33.93.33zm19.819-6.105h-1.47V31h-2.37v-2.34c-.32.35-.725.625-1.215.825-.48.19-1.035.285-1.665.285-1.29 0-2.29-.38-3-1.14s-1.065-1.79-1.065-3.09a9.91 9.91 0 0 1 .06-.9h.165c.81 0 1.38-.175 1.71-.525.33-.36.495-.885.495-1.575v-.675h-3.51V19.9h11.865v1.965zm-3.84 0h-2.19v1.11c0 .81-.195 1.47-.585 1.98-.38.5-.99.795-1.83.885.02.59.225 1.065.615 1.425s.93.54 1.62.54c.73 0 1.305-.22 1.725-.66.43-.45.645-1.03.645-1.74v-3.54zm4.797 0h-1.47V19.9h5.295v1.965h-1.455V31h-2.37v-9.135zm16.475 0h-1.47V31H218v-5.04h-1.935v.705c0 1.07-.28 1.91-.84 2.52-.55.6-1.35.9-2.4.9-.65 0-1.225-.125-1.725-.375a2.71 2.71 0 0 1-1.155-1.065c-.27-.46-.405-.995-.405-1.605 0-.98.315-1.725.945-2.235.64-.52 1.45-.78 2.43-.78h.96v-2.16h-5.19V19.9h13.155v1.965zm-3.84 0h-1.935v2.16H218v-2.16zm-4.125 4.095h-.885c-.38 0-.685.095-.915.285-.23.18-.345.44-.345.78s.095.605.285.795c.2.18.455.27.765.27.36 0 .63-.115.81-.345.19-.24.285-.56.285-.96v-.825zm16.197-4.095v2.22a2.22 2.22 0 0 1 .87-.765c.37-.19.8-.285 1.29-.285.62 0 1.16.155 1.62.465.46.3.81.71 1.05 1.23s.36 1.1.36 1.74c0 .71-.135 1.325-.405 1.845-.26.51-.625.9-1.095 1.17-.46.27-.99.405-1.59.405-.36 0-.7-.04-1.02-.12v-1.845c.11.03.24.045.39.045.39 0 .71-.13.96-.39s.375-.61.375-1.05c0-.43-.13-.785-.39-1.065-.25-.28-.585-.42-1.005-.42-.46 0-.81.155-1.05.465s-.36.7-.36 1.17V31h-2.265v-2.07c-.23.35-.545.625-.945.825-.39.19-.855.285-1.395.285-.62 0-1.165-.145-1.635-.435-.47-.3-.83-.715-1.08-1.245-.25-.54-.375-1.15-.375-1.83 0-1.05.285-1.895.855-2.535s1.345-.96 2.325-.96c.52 0 .965.09 1.335.27.38.18.685.435.915.765v-2.205h-6.48V19.9h14.985v1.965h-6.24zm-3.795 6.195c.47 0 .84-.15 1.11-.45a1.56 1.56 0 0 0 .42-1.08c0-.41-.135-.76-.405-1.05-.27-.3-.64-.45-1.11-.45-.44 0-.805.14-1.095.42s-.435.64-.435 1.08c0 .46.14.83.42 1.11s.645.42 1.095.42zm23.581-13.14c.84 0 1.475.09 1.905.27.44.18.89.605 1.35 1.275.47.67 1.135 1.83 1.995 3.48h-2.025l-.285-.18-1.095-.63a1.96 1.96 0 0 0-.66-.21c-.23-.03-.62-.045-1.17-.045h-.81v-1.47h.75l1.2.045c.26.03.515.105.765.225.26.11.57.305.93.585-.35-.58-.67-1-.96-1.26-.28-.27-.55-.435-.81-.495-.25-.07-.59-.105-1.02-.105h-.855V14.92h.795zm2.04 4.98v1.965h-1.47V31h-2.355v-3.945h-1.47v.135c0 .89-.285 1.6-.855 2.13s-1.325.795-2.265.795c-.7 0-1.315-.13-1.845-.39-.53-.27-.945-.645-1.245-1.125-.29-.48-.435-1.03-.435-1.65h2.205c0 .32.105.59.315.81.22.22.505.33.855.33s.625-.105.825-.315c.21-.21.315-.485.315-.825s-.12-.625-.36-.855c-.23-.23-.575-.345-1.035-.345h-.675v-1.89h.675c.39 0 .7-.095.93-.285a.95.95 0 0 0 .36-.765c0-.32-.1-.575-.3-.765-.19-.19-.44-.285-.75-.285-.32 0-.585.095-.795.285a.92.92 0 0 0-.3.72h-2.16c0-.59.135-1.11.405-1.56.27-.46.65-.815 1.14-1.065s1.06-.375 1.71-.375c.95 0 1.71.25 2.28.75.57.49.855 1.15.855 1.98 0 .54-.14 1.005-.42 1.395-.27.39-.655.67-1.155.84v.045c.28.07.53.185.75.345h2.445V19.9h3.825zm.96 1.965h-1.47V19.9h5.295v1.965h-1.455V31h-2.37v-9.135zm6.843 4.635V28c0 .34.075.615.225.825.16.2.39.3.69.3.28 0 .5-.095.66-.285.16-.2.24-.46.24-.78v-.42h2.265v.33c0 .97-.275 1.74-.825 2.31s-1.315.855-2.295.855c-.7 0-1.3-.14-1.8-.42a2.84 2.84 0 0 1-1.11-1.17c-.25-.49-.375-1.045-.375-1.665v-3.27h1.515c.77 0 1.315-.165 1.635-.495.33-.34.495-.83.495-1.47v-.78h-4.845V19.9h8.475v1.965h-1.275v.78c0 1.2-.28 2.145-.84 2.835-.55.68-1.47 1.02-2.76 1.02h-.075zm15.006-10.995c1.32 0 2.44.195 3.36.585s1.61.94 2.07 1.65c.47.7.705 1.52.705 2.46v.27h-2.31v-.21c0-.94-.345-1.645-1.035-2.115-.68-.48-1.615-.72-2.805-.72-1.14 0-2.035.205-2.685.615-.64.4-.99 1.02-1.05 1.86h1.485v1.965h-1.455V31h-2.37v-9.135h-1.47V19.9h1.47c.06-1.38.61-2.455 1.65-3.225 1.04-.78 2.52-1.17 4.44-1.17zm7.745 4.395v1.965h-1.47V31h-2.295v-2.01c-.26.35-.59.62-.99.81-.39.18-.84.27-1.35.27-.69 0-1.29-.155-1.8-.465-.5-.31-.885-.74-1.155-1.29s-.405-1.17-.405-1.86c0-.67.135-1.265.405-1.785a2.99 2.99 0 0 1 1.17-1.245c.51-.3 1.105-.45 1.785-.45.5 0 .95.09 1.35.27s.73.44.99.78v-2.16h-6.75V19.9h10.515zm-5.46 8.28c.53 0 .945-.165 1.245-.495a1.68 1.68 0 0 0 .45-1.17c0-.46-.15-.85-.45-1.17s-.715-.48-1.245-.48c-.5 0-.91.155-1.23.465-.31.3-.465.695-.465 1.185s.155.89.465 1.2c.32.31.73.465 1.23.465zm13.695-6.315v2.22a2.22 2.22 0 0 1 .87-.765c.37-.19.8-.285 1.29-.285.62 0 1.16.155 1.62.465.46.3.81.71 1.05 1.23s.36 1.1.36 1.74c0 .71-.135 1.325-.405 1.845-.26.51-.625.9-1.095 1.17-.46.27-.99.405-1.59.405-.36 0-.7-.04-1.02-.12v-1.845c.11.03.24.045.39.045.39 0 .71-.13.96-.39s.375-.61.375-1.05c0-.43-.13-.785-.39-1.065-.25-.28-.585-.42-1.005-.42-.46 0-.81.155-1.05.465s-.36.7-.36 1.17V31h-2.265v-2.07c-.23.35-.545.625-.945.825-.39.19-.855.285-1.395.285-.62 0-1.165-.145-1.635-.435-.47-.3-.83-.715-1.08-1.245-.25-.54-.375-1.15-.375-1.83 0-1.05.285-1.895.855-2.535s1.345-.96 2.325-.96c.52 0 .965.09 1.335.27.38.18.685.435.915.765v-2.205h-6.48V19.9h14.985v1.965h-6.24zm-3.795 6.195c.47 0 .84-.15 1.11-.45a1.56 1.56 0 0 0 .42-1.08c0-.41-.135-.76-.405-1.05-.27-.3-.64-.45-1.11-.45-.44 0-.805.14-1.095.42s-.435.64-.435 1.08c0 .46.14.83.42 1.11s.645.42 1.095.42zm10.993-6.195h-1.47V19.9h5.295v1.965h-1.455V31h-2.37v-9.135zm16.25 0h-1.47V31h-2.355v-4.5h-5.58v1.47c0 .34.08.62.24.84.17.21.415.315.735.315.3 0 .53-.1.69-.3.17-.2.255-.455.255-.765v-.195h2.265a3.06 3.06 0 0 1 .015.33c0 .9-.285 1.615-.855 2.145-.56.53-1.335.795-2.325.795-.71 0-1.32-.14-1.83-.42-.5-.29-.88-.68-1.14-1.17-.25-.5-.375-1.065-.375-1.695v-3.03h1.11c.77 0 1.32-.17 1.65-.51.33-.35.495-.835.495-1.455v-.99h-4.455V19.9h12.93v1.965zm-3.825 0h-2.295v.99c0 .66-.12 1.23-.36 1.71h2.655v-2.7zm16.985 0h-1.455V31h-2.37v-3.345l-.045.06-2.97 3.675h-2.535l2.61-2.955c-.85-.15-1.5-.555-1.95-1.215-.45-.67-.675-1.5-.675-2.49v-2.865h-1.275V19.9h10.665v1.965zm-3.825 0h-3.21v2.865c0 .58.13 1.04.39 1.38.27.34.675.51 1.215.51.51 0 .905-.165 1.185-.495s.42-.75.42-1.26v-3zm4.781 0h-1.47V19.9h5.295v1.965h-1.455V31h-2.37v-9.135zm11.285-6.375c1.45 0 2.665.195 3.645.585.99.39 1.725.94 2.205 1.65.49.71.735 1.545.735 2.505v.24h-2.31v-.195c0-.95-.37-1.665-1.11-2.145s-1.805-.72-3.195-.72c-1.31 0-2.31.205-3 .615-.69.4-1.065 1.025-1.125 1.875h1.485v1.965h-1.455V31h-2.37v-9.135h-1.47V19.9h1.47c.07-1.4.645-2.485 1.725-3.255s2.67-1.155 4.77-1.155zm8.42 6.375h-1.41V31h-2.37v-2.49c-.32.42-.745.745-1.275.975-.52.23-1.13.345-1.83.345-.97 0-1.775-.235-2.415-.705-.64-.48-.96-1.15-.96-2.01 0-.6.17-1.08.51-1.44.35-.37.755-.61 1.215-.72v-.06c-.52-.15-.96-.435-1.32-.855-.35-.42-.525-.965-.525-1.635 0-.8.26-1.44.78-1.92s1.19-.72 2.01-.72c.85 0 1.51.235 1.98.705.48.46.72 1.07.72 1.83l-.015.615h-1.74l.015-.315c0-.26-.08-.47-.24-.63s-.37-.24-.63-.24c-.27 0-.485.085-.645.255s-.24.395-.24.675a1.03 1.03 0 0 0 .555.96c.37.21.815.315 1.335.315h.9v1.89h-.795c-.46 0-.825.09-1.095.27-.26.17-.39.42-.39.75 0 .34.14.605.42.795.29.18.68.27 1.17.27.76 0 1.365-.24 1.815-.72.46-.48.69-1.11.69-1.89v-5.4h3.78v1.965zm8.137 0v2.22a2.22 2.22 0 0 1 .87-.765c.37-.19.8-.285 1.29-.285.62 0 1.16.155 1.62.465.46.3.81.71 1.05 1.23s.36 1.1.36 1.74c0 .71-.135 1.325-.405 1.845-.26.51-.625.9-1.095 1.17-.46.27-.99.405-1.59.405-.36 0-.7-.04-1.02-.12v-1.845c.11.03.24.045.39.045.39 0 .71-.13.96-.39s.375-.61.375-1.05c0-.43-.13-.785-.39-1.065-.25-.28-.585-.42-1.005-.42-.46 0-.81.155-1.05.465s-.36.7-.36 1.17V31h-2.265v-2.07c-.23.35-.545.625-.945.825-.39.19-.855.285-1.395.285-.62 0-1.165-.145-1.635-.435-.47-.3-.83-.715-1.08-1.245-.25-.54-.375-1.15-.375-1.83 0-1.05.285-1.895.855-2.535s1.345-.96 2.325-.96c.52 0 .965.09 1.335.27.38.18.685.435.915.765v-2.205h-6.48V19.9h14.985v1.965h-6.24zm-3.795 6.195c.47 0 .84-.15 1.11-.45a1.56 1.56 0 0 0 .42-1.08c0-.41-.135-.76-.405-1.05-.27-.3-.64-.45-1.11-.45-.44 0-.805.14-1.095.42s-.435.64-.435 1.08c0 .46.14.83.42 1.11s.645.42 1.095.42zm13.047-1.56V28c0 .34.075.615.225.825.16.2.39.3.69.3.28 0 .5-.095.66-.285.16-.2.24-.46.24-.78v-.42h2.265v.33c0 .97-.275 1.74-.825 2.31s-1.315.855-2.295.855c-.7 0-1.3-.14-1.8-.42a2.84 2.84 0 0 1-1.11-1.17c-.25-.49-.375-1.045-.375-1.665v-3.27h1.515c.77 0 1.315-.165 1.635-.495.33-.34.495-.83.495-1.47v-.78h-4.845V19.9h8.475v1.965h-1.275v.78c0 1.2-.28 2.145-.84 2.835-.55.68-1.47 1.02-2.76 1.02h-.075zm18.394-4.635h-1.47V31h-2.37v-9.135h-1.995v3.66c0 .98-.285 1.775-.855 2.385s-1.39.915-2.46.915c-.72 0-1.33-.145-1.83-.435a2.79 2.79 0 0 1-1.125-1.185c-.25-.5-.375-1.06-.375-1.68v-3.66h-1.47V19.9h13.95v1.965zm-8.16 0h-2.01v3.87c0 .33.09.6.27.81.19.2.44.3.75.3.32 0 .565-.1.735-.3s.255-.47.255-.81v-3.87z" fill-opacity=".82"/></g></svg>